<?xml version="1.0" encoding="utf-8" standalone="yes"?>
<!DOCTYPE svg PUBLIC "-//W3C//DTD SVG 1.1//EN" "http://www.w3.org/Graphics/SVG/1.1/DTD/svg11.dtd">
<!-- Svg Vector Icons : http://www.onlinewebfonts.com/icon --><svg xmlns="http://www.w3.org/2000/svg" xmlns:xlink="http://www.w3.org/1999/xlink" version="1.1" x="0px" y="0px" viewBox="0 0 256 256" enable-background="new 0 0 256 256" xml:space="preserve" style="zoom: 1;"><metadata> Svg Vector Icons : http://www.onlinewebfonts.com/icon </metadata><g><g><path fill="#444444" d="M72.5,204.4 c-11.5,0 -20.8,-9.3 -20.8,-20.8 c0,-11.5 9.3,-20.8 20.8,-20.8 s20.8,9.3 20.8,20.8 C93.3,195 84,204.4 72.5,204.4 L72.5,204.4 M72.5,176.6 c-3.8,0 -6.9,3.1 -6.9,6.9 c0,3.8 3.1,6.9 6.9,6.9 c3.8,0 6.9,-3.1 6.9,-6.9 C79.4,179.7 76.3,176.6 72.5,176.6 "></path><path fill="#444444" d="M72.5,148.8 c-11.5,0 -20.8,-9.3 -20.8,-20.8 c0,-11.5 9.3,-20.8 20.8,-20.8 s20.8,9.3 20.8,20.8 C93.3,139.5 84,148.8 72.5,148.8 L72.5,148.8 M72.5,121.1 c-3.8,0 -6.9,3.1 -6.9,6.9 c0,3.8 3.1,6.9 6.9,6.9 c3.8,0 6.9,-3.1 6.9,-6.9 C79.4,124.2 76.3,121.1 72.5,121.1 L72.5,121.1 "></path><path fill="#444444" d="M72.5,93.3 C61,93.3 51.6,84 51.6,72.5 S61,51.6 72.5,51.6 S93.3,61 93.3,72.5 S84,93.3 72.5,93.3 L72.5,93.3 M72.5,65.5 c-3.8,0 -6.9,3.1 -6.9,6.9 c0,3.8 3.1,6.9 6.9,6.9 c3.8,0 6.9,-3.1 6.9,-6.9 C79.4,68.6 76.3,65.5 72.5,65.5 "></path><path fill="#444444" d="M183.5,93.3 c-11.5,0 -20.8,-9.3 -20.8,-20.8 s9.3,-20.8 20.8,-20.8 c11.5,0 20.8,9.3 20.8,20.8 S195,93.3 183.5,93.3 L183.5,93.3 M183.5,65.5 c-3.8,0 -6.9,3.1 -6.9,6.9 c0,3.8 3.1,6.9 6.9,6.9 c3.8,0 6.9,-3.1 6.9,-6.9 C190.5,68.6 187.4,65.5 183.5,65.5 "></path><path fill="#444444" d="M183.5,148.8 c-11.5,0 -20.8,-9.3 -20.8,-20.8 c0,-11.5 9.3,-20.8 20.8,-20.8 c11.5,0 20.8,9.3 20.8,20.8 C204.4,139.5 195,148.8 183.5,148.8 M183.5,121.1 c-3.8,0 -6.9,3.1 -6.9,6.9 c0,3.8 3.1,6.9 6.9,6.9 c3.8,0 6.9,-3.1 6.9,-6.9 C190.5,124.2 187.4,121.1 183.5,121.1 L183.5,121.1 "></path><path fill="#444444" d="M183.5,204.4 c-11.5,0 -20.8,-9.3 -20.8,-20.8 c0,-11.5 9.3,-20.8 20.8,-20.8 c11.5,0 20.8,9.3 20.8,20.8 C204.4,195 195,204.4 183.5,204.4 M183.5,176.6 c-3.8,0 -6.9,3.1 -6.9,6.9 c0,3.8 3.1,6.9 6.9,6.9 c3.8,0 6.9,-3.1 6.9,-6.9 C190.5,179.7 187.4,176.6 183.5,176.6 "></path><path fill="#444444" d="M211.3,246 H44.7 C25.6,246 10,230.4 10,211.3 V44.7 C10,25.6 25.6,10 44.7,10 h166.6 c19.1,0 34.7,15.6 34.7,34.7 v166.6 C246,230.4 230.4,246 211.3,246 M44.7,23.9 c-11.5,0 -20.8,9.3 -20.8,20.8 v166.6 c0,11.5 9.3,20.8 20.8,20.8 h166.6 c11.5,0 20.8,-9.3 20.8,-20.8 V44.7 c0,-11.5 -9.3,-20.8 -20.8,-20.8 H44.7 L44.7,23.9 "></path></g></g></svg>