<?xml version="1.0" encoding="utf-8"?>
<!-- Svg Vector Icons : http://www.onlinewebfonts.com/icon -->
<!DOCTYPE svg PUBLIC "-//W3C//DTD SVG 1.1//EN" "http://www.w3.org/Graphics/SVG/1.1/DTD/svg11.dtd">
<svg version="1.1" xmlns="http://www.w3.org/2000/svg" xmlns:xlink="http://www.w3.org/1999/xlink" x="0px" y="0px" viewBox="0 0 256 256" enable-background="new 0 0 256 256" xml:space="preserve">
<metadata> Svg Vector Icons : http://www.onlinewebfonts.com/icon </metadata>
<g> <path fill="#000000" d="M200.5,81.8c0-2,1.7-3.7,3.7-3.7c2,0,3.7,1.7,3.7,3.7v141.5c0,6.2-2.6,11.9-6.7,16.1 c-4.1,4.1-9.8,6.7-16.1,6.7H70.8c-6.2,0-11.9-2.6-16.1-6.7c-4.1-4.1-6.7-9.8-6.7-16.1V81.8c0-2,1.7-3.7,3.7-3.7s3.7,1.7,3.7,3.7 v141.5c0,4.2,1.7,8.1,4.5,10.8c2.8,2.8,6.6,4.5,10.8,4.5h114.3c4.2,0,8.1-1.7,10.8-4.5c2.8-2.8,4.5-6.6,4.5-10.8L200.5,81.8 L200.5,81.8z M100.5,213.7c0,2-1.7,3.7-3.7,3.7c-2,0-3.7-1.7-3.7-3.7v-131c0-2,1.7-3.7,3.7-3.7c2,0,3.7,1.7,3.7,3.7V213.7z  M131.7,213.7c0,2-1.7,3.7-3.7,3.7c-2,0-3.7-1.7-3.7-3.7v-131c0-2,1.7-3.7,3.7-3.7c2,0,3.7,1.7,3.7,3.7V213.7z M162.9,213.7 c0,2-1.7,3.7-3.7,3.7c-2,0-3.7-1.7-3.7-3.7v-131c0-2,1.7-3.7,3.7-3.7c2,0,3.7,1.7,3.7,3.7V213.7L162.9,213.7z M98.3,32.7 c0,2-1.7,3.7-3.7,3.7c-2,0-3.7-1.7-3.7-3.7c0-6.3,2.6-11.9,6.7-16.1c4.1-4.1,9.8-6.7,16.1-6.7h28.6c6.3,0,11.9,2.6,16.1,6.7 c4.1,4.1,6.7,9.8,6.7,16.1c0,2-1.7,3.7-3.7,3.7c-2,0-3.7-1.7-3.7-3.7c0-4.2-1.7-8.1-4.5-10.8c-2.8-2.8-6.6-4.5-10.8-4.5h-28.6 c-4.2,0-8.1,1.7-10.8,4.5C100.1,24.7,98.3,28.5,98.3,32.7z M42.3,43.3h171.5c3.6,0,6.9,1.5,9.3,3.9l0,0c2.4,2.4,3.9,5.7,3.9,9.3 v9.5c0,2-1.7,3.7-3.7,3.7h-0.1H32.7c-2,0-3.7-1.7-3.7-3.7V66v-9.4c0-3.6,1.5-6.9,3.9-9.3l0,0C35.3,44.8,38.7,43.3,42.3,43.3 L42.3,43.3z M213.7,50.7H42.3c-1.6,0-3.1,0.7-4.1,1.7l0,0c-1.1,1-1.7,2.5-1.7,4.1v5.8h183.1v-5.8c0-1.6-0.7-3.1-1.7-4.1l0,0 C216.8,51.4,215.3,50.7,213.7,50.7z"/></g>
</svg>