<?xml version="1.0" encoding="UTF-8" standalone="no"?>
<!DOCTYPE svg PUBLIC "-//W3C//DTD SVG 1.1//EN" "http://www.w3.org/Graphics/SVG/1.1/DTD/svg11.dtd">
<!-- Created with Vectornator (http://vectornator.io/) -->
<svg height="100%" stroke-miterlimit="10" style="fill-rule:nonzero;clip-rule:evenodd;stroke-linecap:round;stroke-linejoin:round;" version="1.1" viewBox="0 0 256 256" width="100%" xml:space="preserve" xmlns="http://www.w3.org/2000/svg" xmlns:xlink="http://www.w3.org/1999/xlink">
<defs/>
<g id="Untitled">
<g opacity="1">
<path d="M219.1 39.6L163.3 39.6C163.7 37.6 163.9 35.6 163.9 33.4C163.9 15 148.4 0.1 129.3 0.1C110.1 0.1 94.7 15 94.7 33.4C94.7 35.5 95 37.6 95.3 39.6L36.9 39.6C22.1 39.6 10 51.2 10 65.5C10 79.8 22.1 91.4 36.9 91.4L39 91.4L39 237.1C39 247.5 47.7 255.8 58.5 255.8L197.4 255.8C208.2 255.8 216.9 247.4 216.9 237.1L216.9 91.4L219 91.4C233.9 91.4 245.9 79.8 245.9 65.5C246 51.2 234 39.6 219.1 39.6ZM105.8 33.4C105.8 20.9 116.3 10.8 129.3 10.8C142.3 10.8 152.8 20.9 152.8 33.4C152.8 35.5 152.4 37.6 151.8 39.6L106.8 39.6C106.2 37.6 105.8 35.6 105.8 33.4ZM205 234.6C205 239.7 200.7 243.8 195.4 243.8L60.2 243.8C55.2 243.4 51.3 239.6 51 234.8L51 91.4L205 91.4L205 234.6ZM217.4 78.6L217 78.6L39.1 78.6L38.7 78.6C31.2 78.6 25 72.7 25 65.4C25 58.1 31.1 52.3 38.7 52.3L217.5 52.3C225.1 52.3 231.2 58.2 231.2 65.4C231.2 72.6 224.9 78.6 217.4 78.6Z" fill="#000000" fill-rule="nonzero" opacity="1" stroke="none"/>
<path d="M87.4 210.1C91.4 210.1 94.7 206.9 94.7 203.1L94.7 112.9C94.7 109.1 91.4 105.9 87.4 105.9C83.4 105.9 80.1 109.1 80.1 112.9L80.1 203.1C80.1 206.9 83.4 210.1 87.4 210.1Z" fill="#000000" fill-rule="nonzero" opacity="1" stroke="none"/>
<path d="M128 210.1C132 210.1 135.3 206.9 135.3 203.1L135.3 112.9C135.3 109.1 132.1 105.9 128 105.9C124 105.9 120.7 109.1 120.7 112.9L120.7 203.1C120.8 206.9 124 210.1 128 210.1Z" fill="#000000" fill-rule="nonzero" opacity="1" stroke="none"/>
<path d="M168.4 210.1C172.4 210.1 175.7 206.9 175.7 203.1L175.7 112.9C175.7 109.1 172.4 105.9 168.4 105.9C164.4 105.9 161.1 109.1 161.1 112.9L161.1 203.1C161.1 206.9 164.4 210.1 168.4 210.1Z" fill="#000000" fill-rule="nonzero" opacity="1" stroke="none"/>
</g>
</g>
</svg>
