<?xml version="1.0" encoding="UTF-8" standalone="no"?>
<!-- Svg Vector Icons : http://www.onlinewebfonts.com/icon -->

<svg
   version="1.1"
   x="0px"
   y="0px"
   viewBox="0 0 256 256"
   enable-background="new 0 0 256 256"
   xml:space="preserve"
   id="svg10"
   sodipodi:docname="fill.svg"
   inkscape:version="1.2.2 (b0a8486541, 2022-12-01)"
   xmlns:inkscape="http://www.inkscape.org/namespaces/inkscape"
   xmlns:sodipodi="http://sodipodi.sourceforge.net/DTD/sodipodi-0.dtd"
   xmlns="http://www.w3.org/2000/svg"
   xmlns:svg="http://www.w3.org/2000/svg"><defs
   id="defs14" /><sodipodi:namedview
   id="namedview12"
   pagecolor="#ffffff"
   bordercolor="#000000"
   borderopacity="0.25"
   inkscape:showpageshadow="2"
   inkscape:pageopacity="0.0"
   inkscape:pagecheckerboard="0"
   inkscape:deskcolor="#d1d1d1"
   showgrid="false"
   inkscape:zoom="0.921875"
   inkscape:cx="-49.898305"
   inkscape:cy="128.54237"
   inkscape:window-width="1440"
   inkscape:window-height="868"
   inkscape:window-x="0"
   inkscape:window-y="-5"
   inkscape:window-maximized="1"
   inkscape:current-layer="svg10" />
<metadata
   id="metadata2"> Svg Vector Icons : http://www.onlinewebfonts.com/icon </metadata>
<g
   id="g8"
   style="fill:#000000;fill-opacity:1"><g
     id="g6"
     style="fill:#000000;fill-opacity:1"><path
       fill="#000000"
       d="M233.9,123c-6.4-10.1-15.3-18.9-26.4-25.9C191.7,87,176,83.3,171,82.2l-56-56c-1.9-1.9-5.1-1.9-7,0l-3.5,3.5c-21,0.3-38.8,3.5-51.8,9.3c-7.2,3.2-12.8,7.1-16.7,11.7c-4.3,5-6.5,10.7-6.5,16.9c0,9,3.6,16.9,10.6,23.5c0.5,0.5,1,0.9,1.6,1.4l-21,21c-14.4,14.4-14.4,37.7,0,52.1l54.9,54.9c7.2,7.2,16.6,10.8,26,10.8c9.4,0,18.9-3.6,26-10.8l56.7-56.7c1.9-1.9,1.9-5.1,0-7c-1.9-1.9-5.1-1.9-7,0l-56.6,56.7c-10.5,10.5-27.6,10.5-38.1,0l-54.9-54.9c-10.5-10.5-10.5-27.6,0-38.1l22.3-22.3c4.3,2.5,9.3,4.6,14.9,6.5c18.3,6.2,39.7,8,54.5,8.5c1.7,3,4.9,5,8.6,5c5.4,0,9.8-4.4,9.8-9.8c0-5.4-4.4-9.8-9.8-9.8c-3.6,0-6.7,1.9-8.4,4.8c-26.3-0.8-43.4-5.2-51.5-8c-4-1.3-7.6-2.8-10.7-4.4l51.4-51.4l2.9-2.9l0.8,0.8l92.2,92.2l-6.1,6.1c-1.4,1.4-2.1,3.6-1.3,5.5c0.8,1.8,2.3,2.9,4.3,2.9h0.1c0.6,0.1,3.3,1.1,6.3,5.9c3.3,5.5,7.3,16.7,7.3,39.4c0,7.6,1.1,14.3,3.1,19.4c3.3,8.3,8.2,9.5,10.9,9.5c7,0,10.8-7.8,12.8-14.3c2.7-8.8,4.1-21.3,4.1-37.1C246,150.5,241.9,135.7,233.9,123z M48.8,85.5c-6.2-5.1-9.3-11.1-9.3-17.9C39.5,52.8,61,42.3,94.3,40L48.8,85.5z M233.1,199c-1.6,6.2-3.3,8.5-4,9.3c-1.4-1.5-4.1-7.3-4.1-18.7c0-21.4-3.3-37.1-9.9-46.4c-1.6-2.3-3.2-3.9-4.7-5.2l4.8-4.8c0.9-0.9,1.4-2.2,1.4-3.5c0-1.3-0.5-2.6-1.4-3.5l-29.1-29.1c5.1,2.1,10.9,4.8,16.6,8.5c9.8,6.3,17.6,14,23.2,22.9c6.9,11.1,10.5,24.1,10.5,38.7C236.1,180.2,235.1,191.2,233.1,199z"
       id="path4"
       style="fill:#000000;fill-opacity:1" /></g></g>
</svg>
