<?xml version="1.0" encoding="UTF-8" standalone="no"?>
<!DOCTYPE svg PUBLIC "-//W3C//DTD SVG 1.1//EN" "http://www.w3.org/Graphics/SVG/1.1/DTD/svg11.dtd">
<!-- Created with Vectornator (http://vectornator.io/) -->
<svg height="256.0pt" stroke-miterlimit="10" style="fill-rule:nonzero;clip-rule:evenodd;stroke-linecap:round;stroke-linejoin:round;" version="1.1" viewBox="0 0 256 256" width="256.0pt" xml:space="preserve" xmlns="http://www.w3.org/2000/svg" xmlns:xlink="http://www.w3.org/1999/xlink">
<defs/>
<g id="Untitled">
<path d="M43.4 140C43.4 140 43.1 129.2 34.1 129.2C24.6 129.2 24.6 140 24.6 140L24.6 140.1C24.6 198.5 70.7 246 128 246C185.3 246 231.4 198.5 231.4 140.1C231.4 82.1 184.8 34.8 128.2 34.4L128.2 17.9C128.2 8.8 120.2 8.6 115.8 12.6L83.4 37.3C83.4 37.3 79.8 40.1 79.8 43.6C79.8 46.9 83.3 49.9 83.3 49.9L115.8 74.6C120.2 78.6 128.2 78.4 128.2 69.3L128.2 53.5C175.3 54 212.7 92.6 212.7 140.1C212.7 187.9 174.9 226.8 128 226.8C81.2 226.8 43.4 187.9 43.4 140.1L43.4 140L43.4 140Z" fill="#444444" fill-rule="nonzero" opacity="1" stroke="none"/>
</g>
</svg>
