<?xml version="1.0" encoding="utf-8"?>
<!-- Svg Vector Icons : http://www.onlinewebfonts.com/icon -->
<!DOCTYPE svg PUBLIC "-//W3C//DTD SVG 1.1//EN" "http://www.w3.org/Graphics/SVG/1.1/DTD/svg11.dtd">
<svg version="1.1" xmlns="http://www.w3.org/2000/svg" xmlns:xlink="http://www.w3.org/1999/xlink" x="0px" y="0px" viewBox="0 0 256 256" enable-background="new 0 0 256 256" xml:space="preserve">
<metadata> Svg Vector Icons : http://www.onlinewebfonts.com/icon </metadata>
<g> <path fill="#000000" d="M232.7,188.2c8.7-9,13.3-19.7,13.3-30.9c0-15.2-8.7-29.4-23.8-39.4c-3.1-40.4-49.5-72.7-105.9-72.7 C57.7,45.2,10,79.7,10,122.1c0,16.8,7.5,33,21.4,46.3l-19.4,19.4c-1.2,1.2-1.9,2.8-1.9,4.6c0,3.6,2.9,6.6,6.6,6.6c0,0,0,0,0,0 c0.4,0,0.8,0,1.2-0.1l48.7-8.8c15.3,5.9,32.5,9,49.8,9c3.2,0,6.7-0.2,10.4-0.4c13.1,7.8,29.4,12.2,46.3,12.2 c11.6,0,23.1-2,33.4-5.9l31.9,5.8c0.3,0.1,0.7,0.1,1.1,0.1c0,0,0,0,0,0c3.6,0,6.6-2.9,6.6-6.6c0-1.8-0.7-3.4-1.9-4.6L232.7,188.2z  M69.6,177.2c-0.7-0.3-1.6-0.5-2.4-0.5c-0.4,0-0.8,0-1.2,0.1L36,182.3l9.5-9.5c1.2-1.2,1.9-2.8,1.9-4.6c0-2-0.9-3.9-2.4-5.1 c-14.2-11.6-22-26.1-22-40.9c0-35.2,41.8-63.8,93.2-63.8c50.9,0,92.7,28.4,93.1,63.3c0,0.1,0.1,0.2,0.1,0.3c0,0.1,0,0.1,0,0.2 c0,32.1-35.1,59.4-81.7,63.3c-4.2,0.4-7.9,0.5-11.4,0.5C99.9,186,83.8,182.9,69.6,177.2L69.6,177.2z M218.6,192.6l1.4,1.4 l-13.1-2.4c-0.4-0.1-0.8-0.1-1.2-0.1c-0.9,0-1.7,0.2-2.5,0.5c-15.8,6.3-35.6,7.3-52.2,2.8c36.9-9.2,64.2-32.7,70.2-61.2 c7.5,6.9,11.6,15.2,11.6,23.7c0,9.2-4.9,18.3-13.8,25.6c-1.5,1.2-2.4,3-2.4,5.1C216.6,189.8,217.4,191.4,218.6,192.6L218.6,192.6z" /> <path fill="#000000" d="M140.4,157c1,2.4,3.3,4,6,4c0,0,0,0,0,0s0,0,0,0c0.9,0,1.8-0.2,2.6-0.5c2.3-1,3.9-3.3,3.9-6 c0-0.9-0.2-1.8-0.5-2.6l-30.1-70.3c-1-2.4-3.3-4-6-4s-5,1.6-6,3.9l-30.2,70.4c-0.3,0.8-0.5,1.6-0.5,2.6c0,3.6,2.9,6.6,6.6,6.6 c2.7,0,5-1.6,6-3.9l11.2-26.2h25.8L140.4,157z M109,117.7l7.3-17l7.3,17H109z"/></g>
</svg>