<?xml version="1.0" encoding="utf-8"?>
<!-- Svg Vector Icons : http://www.onlinewebfonts.com/icon -->
<!DOCTYPE svg PUBLIC "-//W3C//DTD SVG 1.1//EN" "http://www.w3.org/Graphics/SVG/1.1/DTD/svg11.dtd">
<svg version="1.1" xmlns="http://www.w3.org/2000/svg" xmlns:xlink="http://www.w3.org/1999/xlink" x="0px" y="0px" viewBox="0 0 256 256" enable-background="new 0 0 256 256" xml:space="preserve">
<metadata> Svg Vector Icons : http://www.onlinewebfonts.com/icon </metadata>
<g><g><g><path fill="#000000" d="M139.5,33c-3.2,1.7-3.5,2.7-3.8,12.1c-0.2,4.6-0.3,14.2-0.3,21.2V79l-4.5,0.3c-32.4,2.1-56.5,9.7-76.2,23.8C30.2,120.6,15.1,148,11,182.7c-1.6,13.2-1.3,32.6,0.5,37.1c1.9,4.8,9,5.5,11.7,1.2c0.5-0.8,1.2-3.3,1.6-5.7c3.1-17.6,15.9-35.3,33.3-46.1c17.9-11.1,40.5-17.1,68.4-18l8.9-0.3l0,12.7c0,7,0.2,16.9,0.3,22l0.3,9.4l1.9,1.8c2.4,2.2,4.7,2.7,7.3,1.8c1.2-0.5,19.6-14.9,50.7-39.9c37.3-29.9,49-39.5,49.4-40.7c0.8-2,0.8-4-0.1-6c-0.6-1.2-12.7-11.1-49.6-40.3c-26.8-21.3-49.4-39-50-39.2C143.8,31.9,141.2,32,139.5,33z M188.9,84.8c20.8,16.5,37.7,30.3,37.6,30.5c0,0.2-17.2,14.1-37.9,30.8l-37.8,30.4l-0.2-17.3c-0.2-16.3-0.3-17.5-1.2-18.9c-0.5-0.8-1.7-2-2.5-2.5c-1.5-1-2.1-1-10.8-0.9c-47.8,0.6-83.8,13.5-104.9,37.7c-2,2.3-4.2,4.8-4.9,5.6l-1.2,1.4l0.3-2.5c0.9-7.5,5.7-22.5,9.8-30.7c17.3-34.5,51.3-52.9,100.6-54.5c10.1-0.3,11.9-0.8,13.7-3.8c0.9-1.5,0.9-2.5,1.1-18.4c0.1-9.2,0.2-16.7,0.4-16.7C151,54.7,168.1,68.2,188.9,84.8z"/></g></g></g>
</svg>