<?xml version="1.0" encoding="utf-8"?>
<!-- Svg Vector Icons : http://www.onlinewebfonts.com/icon -->
<!DOCTYPE svg PUBLIC "-//W3C//DTD SVG 1.1//EN" "http://www.w3.org/Graphics/SVG/1.1/DTD/svg11.dtd">
<svg version="1.1" xmlns="http://www.w3.org/2000/svg" xmlns:xlink="http://www.w3.org/1999/xlink" x="0px" y="0px" viewBox="0 0 256 256" enable-background="new 0 0 256 256" xml:space="preserve">
<metadata> Svg Vector Icons : http://www.onlinewebfonts.com/icon </metadata>
<g><g><g><path fill="#000000" d="M114.1,11.5c-1.8,0.9-4.6,3-6.1,4.6c-5,5.6-5.2,6.9-5.2,48.8v37.6l-39.1,0.2c-37.8,0.2-39.3,0.3-42.7,1.9c-3.9,1.8-8.3,6.3-9.9,10.2c-1.6,3.9-1.5,22.2,0.2,26.1c1.5,3.7,5.3,7.6,9.4,9.8c3.1,1.7,3.9,1.7,42.6,2l39.5,0.2l0.2,39.5c0.2,38.9,0.2,39.6,2,42.7c2.2,4.1,7.1,8.5,10.9,9.8c4.1,1.4,20.1,1.4,24.2,0c3.9-1.3,8.7-5.7,10.9-9.8c1.7-3.1,1.7-3.9,2-42.7l0.2-39.5l39.5-0.2c38.8-0.2,39.6-0.2,42.6-2c4.1-2.2,7.9-6.1,9.4-9.8c1.7-3.9,1.7-22.3,0.2-26.1c-1.7-3.9-6-8.4-9.9-10.2c-3.4-1.6-5-1.7-42.6-1.9l-39.2-0.2V65c0-42-0.2-43.3-5.2-48.8c-4.8-5.3-7.9-6.3-20.1-6.3C118.8,9.9,116.9,10.1,114.1,11.5z M139.6,19.3c5.4,3.3,5.3,2,5.7,49.1l0.4,42.5l42.1,0.1c38.8,0,42.3,0.2,44.7,1.4c4.6,2.5,5.7,5.3,5.7,15.5c0,10.7-1.1,13.3-6.5,15.7c-3.1,1.5-5.6,1.6-44.8,1.6h-41.4l-0.2,42.2c-0.2,47-0.1,45.7-5.6,49c-3.7,2.3-19.4,2.3-23.1,0c-5.5-3.3-5.3-2-5.6-48.9l-0.2-42.2L68,145l-42.6-0.2l-2.6-1.8c-4.2-3-4.9-5.3-4.9-15.3c0-10.1,1-12.8,5.7-15.3c2.4-1.3,5.8-1.4,41.5-1.5c21.4-0.1,40.4-0.2,42.2-0.2l3.3-0.1l0.2-42.3c0.2-38.9,0.3-42.5,1.7-44.8c2.5-4.6,5.3-5.7,15.5-5.7C135.5,17.7,137.4,18,139.6,19.3z"/></g></g></g>
</svg>