<?xml version="1.0" encoding="UTF-8" standalone="no"?>
<!-- Created with Vectornator (http://vectornator.io/) -->

<svg
   height="100%"
   stroke-miterlimit="10"
   style="fill-rule:nonzero;clip-rule:evenodd;stroke-linecap:round;stroke-linejoin:round;"
   version="1.1"
   viewBox="0 0 256 256"
   width="100%"
   xml:space="preserve"
   id="svg11"
   sodipodi:docname="author.svg"
   inkscape:version="1.2.2 (b0a8486541, 2022-12-01)"
   xmlns:inkscape="http://www.inkscape.org/namespaces/inkscape"
   xmlns:sodipodi="http://sodipodi.sourceforge.net/DTD/sodipodi-0.dtd"
   xmlns="http://www.w3.org/2000/svg"
   xmlns:svg="http://www.w3.org/2000/svg"><sodipodi:namedview
   id="namedview13"
   pagecolor="#ffffff"
   bordercolor="#000000"
   borderopacity="0.25"
   inkscape:showpageshadow="2"
   inkscape:pageopacity="0.0"
   inkscape:pagecheckerboard="0"
   inkscape:deskcolor="#d1d1d1"
   showgrid="false"
   inkscape:zoom="0.921875"
   inkscape:cx="-49.898305"
   inkscape:cy="128"
   inkscape:window-width="1440"
   inkscape:window-height="831"
   inkscape:window-x="0"
   inkscape:window-y="32"
   inkscape:window-maximized="1"
   inkscape:current-layer="svg11" />
<defs
   id="defs2" />
<g
   id="Untitled"
   style="opacity:1;stroke-width:0.7;stroke-dasharray:none"
   transform="matrix(0.82207122,0,0,0.87154073,23.7613,17.540112)">
<g
   opacity="1"
   id="g8"
   style="stroke-width:0.7;stroke-dasharray:none">
<path
   d="m 125.5,176.9 c 37.1,0 67.1,-37 67.1,-82.7 0,-45.7 -30,-82.7 -67.1,-82.7 -37,0 -67.1,37 -67.1,82.7 0,45.6 30.1,82.7 67.1,82.7 z m 0,-150.5 c 28.7,0 52.1,30.4 52.1,67.7 0,37.4 -23.4,67.7 -52.1,67.7 -28.7,0 -52.1,-30.4 -52.1,-67.7 0,-37.3 23.4,-67.7 52.1,-67.7 z M 223.9,192 173.1,173.4 c -3.9,-1.4 -8.2,0.6 -9.6,4.5 -1.4,3.9 0.7,8.2 4.5,9.6 l 50.8,18.6 c 4.8,1.7 9.2,7.9 9.2,13 v 5.4 c 0,4.1 -3.4,5 -7.5,5 H 138.6 112.3 35.5 c -4.1,0 -7.5,-0.9 -7.5,-5 v -5.4 c 0,-5.1 4.4,-11.3 9.2,-13 L 83,187.6 c 3.9,-1.4 5.9,-5.7 4.5,-9.6 -1.4,-3.9 -5.7,-6 -9.6,-4.5 L 32.1,192 C 21.4,195.8 13,207.8 13,219.2 v 5.4 c 0,12.4 10.1,20.1 22.5,20.1 h 76.8 26.3 81.8 c 12.4,0 22.5,-7.6 22.5,-20.1 v -5.4 c 0.1,-11.4 -8.3,-23.4 -19,-27.2 z"
   fill="#555555"
   fill-rule="nonzero"
   opacity="1"
   stroke="none"
   id="path4"
   inkscape:label="path4"
   style="display:inline;stroke-width:0.7;stroke-dasharray:none" />

</g>
</g>
</svg>
