<?xml version="1.0" encoding="UTF-8" standalone="no"?>
<!-- Created with Vectornator (http://vectornator.io/) -->

<svg
   height="100%"
   stroke-miterlimit="10"
   style="fill-rule:nonzero;clip-rule:evenodd;stroke-linecap:round;stroke-linejoin:round;"
   version="1.1"
   viewBox="0 0 256 256"
   width="100%"
   xml:space="preserve"
   id="svg15"
   sodipodi:docname="dustbin.svg"
   inkscape:version="1.2.2 (b0a8486541, 2022-12-01)"
   xmlns:inkscape="http://www.inkscape.org/namespaces/inkscape"
   xmlns:sodipodi="http://sodipodi.sourceforge.net/DTD/sodipodi-0.dtd"
   xmlns="http://www.w3.org/2000/svg"
   xmlns:svg="http://www.w3.org/2000/svg"><sodipodi:namedview
   id="namedview17"
   pagecolor="#ffffff"
   bordercolor="#000000"
   borderopacity="0.25"
   inkscape:showpageshadow="2"
   inkscape:pageopacity="0.0"
   inkscape:pagecheckerboard="0"
   inkscape:deskcolor="#d1d1d1"
   showgrid="false"
   inkscape:zoom="0.921875"
   inkscape:cx="-55.322034"
   inkscape:cy="116.0678"
   inkscape:window-width="1440"
   inkscape:window-height="831"
   inkscape:window-x="0"
   inkscape:window-y="32"
   inkscape:window-maximized="1"
   inkscape:current-layer="svg15" />
<defs
   id="defs2" />
<g
   id="Untitled"
   transform="matrix(0.8702174,0,0,0.84224344,17.930109,20.464497)"
   style="fill:#444444;fill-opacity:1;stroke-width:0.999719;stroke-dasharray:none">
<g
   opacity="1"
   id="g12"
   style="fill:#444444;fill-opacity:1;stroke-width:0.999719;stroke-dasharray:none">
<path
   d="m 219.1,39.6 h -55.8 c 0.4,-2 0.6,-4 0.6,-6.2 C 163.9,15 148.4,0.1 129.3,0.1 110.1,0.1 94.7,15 94.7,33.4 c 0,2.1 0.3,4.2 0.6,6.2 H 36.9 C 22.1,39.6 10,51.2 10,65.5 10,79.8 22.1,91.4 36.9,91.4 H 39 v 145.7 c 0,10.4 8.7,18.7 19.5,18.7 h 138.9 c 10.8,0 19.5,-8.4 19.5,-18.7 V 91.4 h 2.1 c 14.9,0 26.9,-11.6 26.9,-25.9 C 246,51.2 234,39.6 219.1,39.6 Z M 105.8,33.4 c 0,-12.5 10.5,-22.6 23.5,-22.6 13,0 23.5,10.1 23.5,22.6 0,2.1 -0.4,4.2 -1,6.2 h -45 c -0.6,-2 -1,-4 -1,-6.2 z M 205,234.6 c 0,5.1 -4.3,9.2 -9.6,9.2 H 60.2 c -5,-0.4 -8.9,-4.2 -9.2,-9 V 91.4 h 154 z m 12.4,-156 H 217 39.1 38.7 C 31.2,78.6 25,72.7 25,65.4 25,58.1 31.1,52.3 38.7,52.3 h 178.8 c 7.6,0 13.7,5.9 13.7,13.1 0,7.2 -6.3,13.2 -13.8,13.2 z"
   fill="#000000"
   fill-rule="nonzero"
   opacity="1"
   stroke="none"
   id="path4"
   style="fill:#444444;fill-opacity:1;stroke-width:0.999719;stroke-dasharray:none" />
<path
   d="m 87.4,210.1 c 4,0 7.3,-3.2 7.3,-7 v -90.2 c 0,-3.8 -3.3,-7 -7.3,-7 -4,0 -7.3,3.2 -7.3,7 v 90.2 c 0,3.8 3.3,7 7.3,7 z"
   fill="#000000"
   fill-rule="nonzero"
   opacity="1"
   stroke="none"
   id="path6"
   style="fill:#444444;fill-opacity:1;stroke-width:0.999719;stroke-dasharray:none" />
<path
   d="m 128,210.1 c 4,0 7.3,-3.2 7.3,-7 v -90.2 c 0,-3.8 -3.2,-7 -7.3,-7 -4,0 -7.3,3.2 -7.3,7 v 90.2 c 0.1,3.8 3.3,7 7.3,7 z"
   fill="#000000"
   fill-rule="nonzero"
   opacity="1"
   stroke="none"
   id="path8"
   style="fill:#444444;fill-opacity:1;stroke-width:0.999719;stroke-dasharray:none" />
<path
   d="m 168.4,210.1 c 4,0 7.3,-3.2 7.3,-7 v -90.2 c 0,-3.8 -3.3,-7 -7.3,-7 -4,0 -7.3,3.2 -7.3,7 v 90.2 c 0,3.8 3.3,7 7.3,7 z"
   fill="#000000"
   fill-rule="nonzero"
   opacity="1"
   stroke="none"
   id="path10"
   style="fill:#444444;fill-opacity:1;stroke-width:0.999719;stroke-dasharray:none"
   inkscape:label="path10" />
</g>
</g>
</svg>
