<?xml version="1.0" encoding="utf-8"?>
<!-- Svg Vector Icons : http://www.onlinewebfonts.com/icon -->
<!DOCTYPE svg PUBLIC "-//W3C//DTD SVG 1.1//EN" "http://www.w3.org/Graphics/SVG/1.1/DTD/svg11.dtd">
<svg version="1.1" xmlns="http://www.w3.org/2000/svg" xmlns:xlink="http://www.w3.org/1999/xlink" x="0px" y="0px" viewBox="0 0 256 256" enable-background="new 0 0 256 256" xml:space="preserve">
<metadata> Svg Vector Icons : http://www.onlinewebfonts.com/icon </metadata>
<g><g><g><path fill="#000000" d="M23,10.6c-0.5,0.3-1.2,0.9-1.5,1.2c-0.5,0.6-0.6,24.6-0.6,116.4c0,113.1,0,115.6,0.9,116.7l0.9,1.1H128h105.4l0.9-1.1c0.9-1.1,0.9-3.6,0.9-116.5c0-63.5-0.1-115.8-0.3-116.2C234,9.9,239,10,127.9,10C53.6,10,23.6,10.2,23,10.6z M227.5,128.1v110.5H128H28.5V128.1V17.6H128h99.5V128.1z"/><path fill="#000000" d="M44,32.9l-1.2,1v94.3v94.3l1.2,1l1.3,1H128h82.7l1.3-1l1.2-1v-94.3V33.9l-1.2-1l-1.3-1H128H45.3L44,32.9z M206.1,84.5c0,24.8-0.1,45-0.2,45s-4.1-4-9-8.9c-7.7-7.8-8.9-8.8-10.3-8.9c-1.5,0-3.2,1.5-24.8,23.1l-23.1,23.1l-15.9-17.9c-20.3-22.8-18.2-20.7-20.1-20.7c-1.4,0-3.5,2-26.8,25.2C62,158.6,50.5,170,50.3,170c-0.2,0-0.4-29.4-0.4-65.3V39.5H128h78.1V84.5z M196.5,130.9l9.6,10v37.9v37.9H128H49.9v-17.8v-17.7l26.3-26.3l26.3-26.3l16.9,19.1c10.2,11.5,17.3,19.1,18,19.3c0.6,0.2,1.6,0.2,2.2,0c0.6-0.1,11.3-10.6,23.9-23.1c12.6-12.6,23-22.9,23.1-22.9C186.8,121,191.2,125.5,196.5,130.9z"/><path fill="#000000" d="M134,56.9c-10.5,2.1-18.8,8.3-23.5,17.8c-2.9,5.7-3.9,15.4-2.2,21.8c5.1,19.8,27,30.1,45.2,21.2c7.1-3.5,11.9-8.2,15.3-15.5c7.4-15.3,0.9-34.2-14.6-42.2C148.2,56.8,140.3,55.6,134,56.9z M145.4,64.5c8.4,2.2,15.4,8.7,17.9,16.8c1.2,3.8,1.3,10.2,0.2,14c-3.2,10.9-12.7,18.1-24,18.1c-6.7,0-12.3-2.3-17.2-7.1c-7.8-7.7-9.7-18.8-4.9-28.5C122.5,67.3,134.4,61.7,145.4,64.5z"/></g></g></g>
</svg>