<?xml version="1.0" encoding="utf-8"?>
<!-- Svg Vector Icons : http://www.onlinewebfonts.com/icon -->
<!DOCTYPE svg PUBLIC "-//W3C//DTD SVG 1.1//EN" "http://www.w3.org/Graphics/SVG/1.1/DTD/svg11.dtd">
<svg version="1.1" xmlns="http://www.w3.org/2000/svg" xmlns:xlink="http://www.w3.org/1999/xlink" x="0px" y="0px" viewBox="0 0 256 256" enable-background="new 0 0 256 256" xml:space="preserve">
<metadata> Svg Vector Icons : http://www.onlinewebfonts.com/icon </metadata>
<g><g><path fill="#000000" d="M51,246c-10.8,0-21-4.2-28.7-11.9l-0.5-0.5C14.2,226,10,215.8,10,205s4.2-21,11.9-28.7l52.2-52.2c7.7-7.7,17.8-11.9,28.7-11.9c10.8,0,21,4.2,28.7,11.9l0.5,0.5c7.7,7.7,11.9,17.8,11.9,28.7s-4.2,21-11.9,28.7l-52.3,52.2C72,241.8,61.8,246,51,246z M102.7,122.6c-8.1,0-15.7,3.1-21.4,8.8l-52.2,52.2c-5.7,5.7-8.8,13.3-8.8,21.4s3.1,15.7,8.8,21.4l0.5,0.5c5.7,5.7,13.3,8.8,21.4,8.8s15.7-3.1,21.4-8.8l52.2-52.2c5.7-5.7,8.8-13.3,8.8-21.4s-3.1-15.7-8.8-21.4l-0.5-0.5C118.4,125.7,110.8,122.6,102.7,122.6z"/><path fill="#000000" d="M153.2,143.8c-10.8,0-21-4.2-28.7-11.9l-0.5-0.5c-7.7-7.7-11.9-17.8-11.9-28.7c0-10.8,4.2-21,11.9-28.7l52.2-52.2C184,14.2,194.1,10,205,10s21,4.2,28.7,11.9l0.5,0.5C241.8,30,246,40.2,246,51c0,10.8-4.2,21-11.9,28.7l-52.3,52.2C174.2,139.6,164.1,143.8,153.2,143.8z M204.9,20.3c-8.1,0-15.7,3.1-21.4,8.8l-52.2,52.2c-5.7,5.7-8.8,13.3-8.8,21.4s3.1,15.7,8.8,21.4l0.5,0.5c5.7,5.7,13.3,8.8,21.4,8.8c8.1,0,15.7-3.1,21.4-8.8l52.2-52.3c5.7-5.7,8.8-13.3,8.8-21.4s-3.1-15.7-8.8-21.4l-0.5-0.5C220.6,23.5,213,20.3,204.9,20.3z"/><path fill="#000000" d="M90.5,170.7c-1.3,0-2.6-0.5-3.7-1.5c-2-2-2-5.3,0-7.3l73-73c2-2,5.3-2,7.3,0c2,2,2,5.3,0,7.3l-73,73C93.1,170.2,91.8,170.7,90.5,170.7z"/></g></g>
</svg>