<?xml version="1.0" encoding="utf-8"?>
<!-- Svg Vector Icons : http://www.onlinewebfonts.com/icon -->
<!DOCTYPE svg PUBLIC "-//W3C//DTD SVG 1.1//EN" "http://www.w3.org/Graphics/SVG/1.1/DTD/svg11.dtd">
<svg version="1.1" xmlns="http://www.w3.org/2000/svg" xmlns:xlink="http://www.w3.org/1999/xlink" x="0px" y="0px" viewBox="0 0 256 256" enable-background="new 0 0 256 256" xml:space="preserve">
<metadata> Svg Vector Icons : http://www.onlinewebfonts.com/icon </metadata>
<g><g><g><path fill="#000000" d="M56.7,13.6c-3,1.1-7.1,5.3-8.4,8.7c-1.3,3.5-1.4,8.8-0.2,12c0.5,1.2,3.9,6.6,7.7,12l6.9,9.7l-3.6,4.4c-15,18-22.6,41.2-20.7,63.4c0.3,3.4,0.6,6.7,0.6,7.5c0.1,1.5,1.5,0.8-13.2,6.6c-9.6,3.8-11.8,5.4-14.3,10.5c-1.4,2.8-1.5,3.6-1.5,7.1c0,3.1,0.2,4.5,1,6.1c1.4,3,4.4,5.9,8,7.6c2.8,1.3,3.6,1.5,7.1,1.5c3.9,0,4.3-0.1,14.1-4.1c8.7-3.5,10.1-3.9,10.6-3.3c11.1,17.3,25.2,29.5,42.8,37c5.3,2.3,12.2,4.4,17.1,5.3l3.1,0.6l0.2,12l0.1,12.1l1.5,3.1c1.8,3.8,4.6,6.7,8.5,8.5c2.6,1.2,3.3,1.4,6.6,1.2c2.6-0.1,4.3-0.5,6-1.3c3.1-1.5,6.6-5.1,8.1-8.4c1.3-2.6,1.3-2.8,1.5-15.3l0.2-12.7l3.3-0.8c11.1-2.7,23.4-8.8,33.3-16.3c6.8-5.2,16-15.2,20.6-22.4c1-1.6,2.1-3,2.3-3c0.2,0,4.7,1.7,10.1,3.8c9.4,3.8,9.9,3.8,13.7,3.9c3.4,0,4.4-0.2,6.7-1.3c3.6-1.7,7-5,8.4-8c2.8-6.4,0.1-15.4-5.8-19.5c-1.1-0.8-6.4-3.1-11.8-5.2c-5.4-2.1-9.9-3.9-10-4.1c-0.1-0.1,0-2.1,0.3-4.4c0.8-5.9,0.7-17.2-0.2-23c-2.4-16.8-9.9-33-21.1-46l-3-3.5l1.5-2.1c0.8-1.2,3.8-5.4,6.6-9.4c6.4-9.1,7.5-11.5,7.2-16.4c-0.4-6.3-3.5-11.3-8.6-13.7c-2.3-1.1-3.4-1.3-6.4-1.3c-8,0-10.6,1.9-19,13.8c-3.5,4.9-6.5,9.2-6.7,9.5c-0.2,0.4-1.6,0-5.5-1.6c-6.6-2.8-14.8-5-22.1-6.1c-8.4-1.2-22.1-0.8-29.7,0.8c-7,1.5-10.8,2.8-17.1,5.3c-4.5,1.9-5.2,2.1-5.6,1.4C73.5,15.7,73.5,15.6,68.5,13.8C65.5,12.6,59.7,12.5,56.7,13.6z M66.9,21.2c0.9,0.5,13.4,17.5,14,19c0.1,0.3-1.4,1.6-3.2,3c-1.9,1.3-4.6,3.3-6.1,4.6c-1.5,1.2-2.8,2.2-3,2.2c-0.4,0-4-5-10.6-14.6c-2.9-4.2-3.2-4.8-3.2-7c0-2.9,1-4.7,3.4-6.3C61,19.9,64.1,19.7,66.9,21.2z M195.1,20.6c3.2,0.9,6.1,4.5,6.1,7.5c0,2.3-0.8,3.8-7.9,13.7l-5.7,8.1l-3.5-2.8c-1.9-1.5-4.8-3.6-6.3-4.6c-1.5-1-2.8-2-2.8-2.2c0-0.5,12-17.5,13-18.4c1.2-1,4.3-2.2,5.3-1.9C193.6,20.2,194.4,20.4,195.1,20.6z M140.4,36.5c18.1,2.7,32.6,10.3,47.6,24.8c8.5,8.3,16.3,22.5,19.7,35.9c2.3,8.9,3,21.6,1.9,30.6c-1.5,11.6-6.9,26.1-13.4,35.8c-11.9,17.9-33.1,31.5-53.9,34.5c-31.1,4.5-59-5.9-78.2-29.1c-8.3-10-15.1-25.9-17.3-40.5c-0.8-5.2-0.7-17.4,0.2-23.3c2.9-19.1,12-36.1,25.9-48.2c14.1-12.3,28.1-18.7,45.5-20.9C122.3,35.6,136.1,35.9,140.4,36.5z M45.1,152.4c0.7,1.5,1.1,3,0.9,3.1c-0.6,0.5-18,7.3-19.7,7.6c-3.7,0.7-7.2-1.9-8.4-6.1c-0.9-3-0.3-5.4,1.6-7.3c0.9-0.8,4.8-2.7,11.4-5.2l10-3.9l1.5,4.6C43.3,147.6,44.5,150.9,45.1,152.4z M225.1,144.5c5,2,9.7,4,10.5,4.5c4.9,3.5,2.5,13-3.6,14.2c-1.9,0.4-3.8-0.2-14.9-4.6c-3.8-1.5-6.9-2.9-6.9-3.1c0-0.2,0.7-2.2,1.6-4.3c0.8-2.2,1.9-5.1,2.4-6.5c0.4-1.4,0.8-2.9,0.9-3.2c0.1-0.3,0.4-0.6,0.6-0.6C215.8,140.9,220.1,142.5,225.1,144.5z M138.3,217.5c0,6.1-0.2,11.3-0.5,12.3c-1,3.6-3.6,5.4-7.8,5.4c-2.1,0-3.1-0.2-4.3-1.1c-3-2-3.1-2.6-3.4-15.2l-0.2-11.4l6.1-0.2c3.4,0,7-0.2,8.2-0.2l2-0.1L138.3,217.5L138.3,217.5z"/><path fill="#000000" d="M118.4,60.5c-11.4,2-23.2,8.1-31.4,16.3c-3.8,3.8-9.6,12.6-12.1,18.2c-3.2,7.5-4.3,12.2-4.5,21.1c-0.2,6.7-0.1,8.4,0.8,12.6c1.8,9,5.1,16,10.7,23.3c9.1,11.7,21.4,19.5,35.8,22.6c5.1,1.1,16.5,1.1,21.4,0c20.5-4.6,37.7-19.8,44.2-39.2c4.6-13.8,3.5-29.8-3.1-42.9c-1.6-3.1-2.7-4.9-6.7-10.7c-3.4-5-12.4-12.4-19.1-15.8c-4.1-2.1-12.1-4.7-16.8-5.5C132.6,59.6,123.5,59.6,118.4,60.5z M138.5,68.7c2.6,0.5,4.9,1.1,5.1,1.3c0.2,0.2-1.8,3.4-4.5,7.1l-4.7,6.7l-6.4,0.1l-6.3,0l-4.8-6.8c-3.9-5.5-4.6-6.9-4.1-7.2c0.4-0.2,2.7-0.8,5.1-1.3C123.9,67.4,132.4,67.4,138.5,68.7z M157,76.7c1.1,0.8,3.2,2.5,4.6,3.8l2.7,2.5l-4.7,6.6l-4.6,6.6l-3.4-3.1c-1.8-1.7-4.6-3.8-6.2-4.7c-1.5-0.9-2.8-1.8-2.8-2c0-0.2,2-3.2,4.5-6.7l4.5-6.3l1.7,1C154.2,74.9,155.9,76,157,76.7z M109.3,80.2l4.5,6.4l-2.8,1.7c-1.5,0.9-4.4,3.1-6.3,4.9c-1.9,1.8-3.7,3-3.8,2.8c-0.8-0.8-8.6-12.1-8.8-12.6c-0.4-0.9,10.7-9.6,12.2-9.6C104.5,73.8,106.8,76.7,109.3,80.2z M171.9,92.9c3.3,6,6.3,16.6,6.3,22.6c0,1.8-0.1,2-0.8,1.8c-0.5-0.1-4.2-1.6-8.3-3.2l-7.4-2.9l-1.2-3.6l-1.2-3.6l5.1-7.3c2.8-4,5.3-7.2,5.4-7.1C170,89.7,171,91.2,171.9,92.9z M92,97.4l4.9,6.9l-1,3.2c-0.6,1.7-1.4,3.3-1.7,3.5s-4,1.7-8.2,3.3l-7.6,3v-2.5c0-5.7,2.2-13.9,5.2-19.9c2.1-4.1,2.9-5.3,3.3-4.8C86.9,90.3,89.3,93.6,92,97.4z M135.7,92.8c6.6,2,11.8,6.2,15.2,12.3c2.3,4,3,6.8,2.9,12.3c0,7.6-2.1,12.7-7.5,18.8c-2.3,2.5-7,5.2-11.2,6.2c-4.1,1-10.2,1-13.9-0.2c-1.6-0.5-3.3-0.9-3.7-0.9c-0.9,0-5.9-3.2-7.5-4.8c-7.9-8-10.1-20.6-5.3-30.4c2.3-4.6,7.3-9.8,11.5-11.7C123,91.4,129.3,90.9,135.7,92.8z M94.8,123.8c0.4,2.2,1.5,5.6,2.4,7.6c0.9,2,1.6,3.6,1.6,3.7c-0.1,0-2.3,0.9-5.1,2c-2.7,1-6.1,2.3-7.4,2.9l-2.4,1l-1.2-2.6c-1.4-3.2-3.4-9.3-3.6-11.2c-0.1-1.4-0.1-1.4,7.1-4.3c4-1.6,7.4-3,7.5-3C93.9,119.8,94.3,121.6,94.8,123.8z M177,125.9c0.8,0.8-2.4,11.4-4.4,14.4c-0.3,0.5-1.8,0.1-7.4-2.1c-3.8-1.5-7.2-2.9-7.4-3c-0.2-0.1,0.1-1.3,0.8-2.6c1.4-2.7,2.9-7.6,3.3-10.6l0.3-2.2l7.1,2.8C173.4,124.3,176.8,125.7,177,125.9z M111.7,147l2.3,1.2v8.6v8.6l-1.3-0.3c-3-0.8-8.5-3.4-12.5-6c-4.2-2.8-11.6-9.7-11.6-10.9c0-0.4,3.1-1.8,7.8-3.7l7.9-3l2.6,2.1C108.3,144.8,110.5,146.3,111.7,147z M159.8,144.7c4,1.5,7.6,3,7.7,3.2c0.9,0.8-6.7,8.2-12,11.6c-3.1,2-7.9,4.4-8.8,4.4c-0.3,0-0.5-3.5-0.5-9.1c0-5,0.1-9.1,0.4-9.1c0.2,0,1.4-0.8,2.6-1.9c1.2-1,2.4-1.9,2.7-1.9C152.3,141.9,155.8,143.1,159.8,144.7z M137.9,158.5v8.2l-2.9,0.3c-1.6,0.1-5.2,0.2-7.9,0.1l-4.9-0.1l-0.1-7.9l-0.1-7.9l4.3,0.2c2.9,0.2,5.5,0,7.6-0.4c1.8-0.3,3.4-0.7,3.7-0.7C137.7,150.3,137.9,154,137.9,158.5z"/><path fill="#000000" d="M125.2,104c-4.2,1.2-8.1,4.6-9.9,8.5c-2.1,4.6-0.7,10.9,3.3,14.8c3,2.9,5.7,4,9.6,4c4.1,0,7.1-1.5,10.2-4.9c3.9-4.3,4.7-9.4,2.2-14.5C137.6,105.7,131,102.4,125.2,104z M131.8,112.5c2.3,1.2,3.1,5.4,1.6,8.3c-1.8,3.6-8.6,3.6-10.5-0.1c-0.8-1.5-0.4-6.3,0.7-7.5C125.2,111.4,128.9,111.1,131.8,112.5z"/></g></g></g>
</svg>