<?xml version="1.0" encoding="UTF-8" standalone="no"?>
<!-- Uploaded to: SVG Repo, www.svgrepo.com, Generator: SVG Repo Mixer Tools -->

<svg
   fill="#000000"
   width="800px"
   height="800px"
   viewBox="0 0 30 30"
   version="1.1"
   id="svg4"
   sodipodi:docname="pages.svg"
   inkscape:version="1.2.2 (b0a8486541, 2022-12-01)"
   xmlns:inkscape="http://www.inkscape.org/namespaces/inkscape"
   xmlns:sodipodi="http://sodipodi.sourceforge.net/DTD/sodipodi-0.dtd"
   xmlns="http://www.w3.org/2000/svg"
   xmlns:svg="http://www.w3.org/2000/svg">
  <defs
     id="defs8" />
  <sodipodi:namedview
     id="namedview6"
     pagecolor="#ffffff"
     bordercolor="#000000"
     borderopacity="0.25"
     inkscape:showpageshadow="2"
     inkscape:pageopacity="0.0"
     inkscape:pagecheckerboard="0"
     inkscape:deskcolor="#d1d1d1"
     showgrid="false"
     inkscape:zoom="0.295"
     inkscape:cx="-155.9322"
     inkscape:cy="400"
     inkscape:window-width="1440"
     inkscape:window-height="831"
     inkscape:window-x="0"
     inkscape:window-y="32"
     inkscape:window-maximized="1"
     inkscape:current-layer="svg4" />
  <path
     d="m 18.980571,4.4914975 c -0.247717,0.00326 -0.452353,0.1822513 -0.448762,0.4068107 v 3.2544861 c 0,0.6631015 0.588776,1.2204323 1.319365,1.2204323 h 3.617033 c 0.601343,0 0.586982,-0.8136215 0,-0.8136215 h -3.617033 c -0.233358,0 -0.421838,-0.1684197 -0.421838,-0.4068108 V 4.8983082 C 19.432893,4.6688669 19.233674,4.488243 18.980571,4.4914975 Z M 9.0808506,2.8642544 c -0.7296894,0 -1.3193646,0.5573308 -1.3193646,1.2204324 V 22.797981 c 0,0.663102 0.5887777,1.220433 1.3193646,1.220433 H 24.392659 c 0.730587,0 1.319365,-0.557331 1.319365,-1.220433 V 8.1527943 c 0,-0.1082117 -0.04756,-0.2115416 -0.131039,-0.288022 L 20.195824,2.9830432 C 20.111456,2.9073772 19.998369,2.8642544 19.878098,2.8642544 Z m 0,0.8136216 H 19.692311 l 5.122185,4.643338 v 14.476767 c 0,0.238391 -0.188479,0.406811 -0.421837,0.406811 H 9.0808506 c -0.2333571,0 -0.4218377,-0.16842 -0.4218377,-0.406811 V 4.0846868 c 0,-0.2383912 0.1884806,-0.4068108 0.4218377,-0.4068108 z M 5.4907429,6.1187406 c -0.7296892,0 -1.3193645,0.5573306 -1.3193645,1.2204322 V 26.052468 c 0,0.663101 0.5887776,1.220432 1.3193645,1.220432 H 20.802551 c 0.730588,0 1.319366,-0.557331 1.319366,-1.220432 v -0.813622 c 0.009,-0.550009 -0.906504,-0.550009 -0.897528,0 v 0.813622 c 0,0.23839 -0.18848,0.40681 -0.421838,0.40681 H 5.4907429 c -0.233357,0 -0.4218376,-0.16842 -0.4218376,-0.40681 V 7.3391728 c 0,-0.238391 0.1884806,-0.4068108 0.4218376,-0.4068108 h 0.9513786 c 0.6058307,0.00813 0.6058307,-0.8217577 0,-0.8136214 z"
     id="path2"
     style="stroke-width:0.854546" />
</svg>
