<?xml version="1.0" encoding="UTF-8" standalone="no"?>
<!-- Svg Vector Icons : http://www.onlinewebfonts.com/icon -->

<svg
   version="1.1"
   x="0px"
   y="0px"
   viewBox="0 0 256 256"
   enable-background="new 0 0 256 256"
   xml:space="preserve"
   id="svg1974"
   sodipodi:docname="seriesmanager.svg"
   inkscape:version="1.2.2 (b0a8486541, 2022-12-01)"
   xmlns:inkscape="http://www.inkscape.org/namespaces/inkscape"
   xmlns:sodipodi="http://sodipodi.sourceforge.net/DTD/sodipodi-0.dtd"
   xmlns="http://www.w3.org/2000/svg"
   xmlns:svg="http://www.w3.org/2000/svg"><defs
   id="defs1978" /><sodipodi:namedview
   id="namedview1976"
   pagecolor="#ffffff"
   bordercolor="#000000"
   borderopacity="0.25"
   inkscape:showpageshadow="2"
   inkscape:pageopacity="0.0"
   inkscape:pagecheckerboard="0"
   inkscape:deskcolor="#d1d1d1"
   showgrid="false"
   inkscape:zoom="0.921875"
   inkscape:cx="-49.898305"
   inkscape:cy="128"
   inkscape:window-width="1440"
   inkscape:window-height="831"
   inkscape:window-x="0"
   inkscape:window-y="32"
   inkscape:window-maximized="1"
   inkscape:current-layer="svg1974" />
<metadata
   id="metadata1960"> Svg Vector Icons : http://www.onlinewebfonts.com/icon </metadata>
<g
   id="g1972"
   style="fill:#444444;fill-opacity:1;stroke-width:0.3;stroke-dasharray:none"><g
     id="g1970"
     style="fill:#444444;fill-opacity:1;stroke-width:0.3;stroke-dasharray:none"><g
       id="g1968"
       style="fill:#444444;fill-opacity:1;stroke-width:0.3;stroke-dasharray:none"><path
         fill="#000000"
         d="M21.7,5.9c-4.9,0.5-8,2.5-10.2,6.6c-1.5,2.7-1.6,7.4-1.6,114.3c0,123.4-0.4,114.9,5.3,118.9c2.5,1.7,3.2,1.8,26.7,2.1c24.1,0.2,24.3,0.2,27.1-1.6c1.6-1.1,3.7-3.5,4.8-5.6l1.8-3.6V127.3c0-68.7-0.3-110.6-0.8-112.3c-0.4-1.6-1.6-3.7-2.6-4.8c-4-4.3-5.3-4.4-26.4-4.6C34.9,5.6,24.1,5.7,21.7,5.9z M62.1,25.2v6.6l-19.4,0.1L23.1,32v-6.9v-6.9l19.5,0.2l19.4,0.2V25.2z M62.1,126.9v82l-19.4,0.2l-19.5,0.2v-82.4V44.5l19.5,0.2l19.4,0.2V126.9z M62.3,228.4l0.2,6.2l-3.9,0.5c-2.1,0.2-11.1,0.4-19.7,0.3l-15.8-0.2v-6.8v-6.8l19.5,0.2l19.4,0.2L62.3,228.4z"
         id="path1962"
         style="fill:#444444;fill-opacity:1;stroke-width:0.3;stroke-dasharray:none" /><path
         fill="#000000"
         d="M93.9,32.2c-4.9,0.5-8,2.5-10.2,6.6c-1.5,2.7-1.6,7.1-1.6,101.1c0,108.8-0.3,101.8,5.3,105.8c2.5,1.7,3.2,1.8,26.7,2.1c24.1,0.2,24.3,0.2,27.1-1.6c1.6-1.1,3.7-3.5,4.8-5.6l1.8-3.6v-96.5c0-60.2-0.3-97.4-0.8-99.2c-0.4-1.6-1.6-3.7-2.6-4.8c-4-4.3-5.3-4.4-26.4-4.6C107,31.9,96.3,31.9,93.9,32.2z M134.5,50l0.2,5.2H115H95.3v-5.3v-5.3l19.5,0.2l19.4,0.2L134.5,50z M134.7,140.1v71.8H115H95.3v-71.8V68.3H115h19.7V140.1z M134.5,230l-0.2,5.2l-19.4,0.2l-19.5,0.2v-5.3v-5.3H115h19.8L134.5,230z"
         id="path1964"
         style="fill:#444444;fill-opacity:1;stroke-width:0.3;stroke-dasharray:none" /><path
         fill="#000000"
         d="M183.5,86c-13.7,2.9-22.1,4.9-23.4,5.9c-3.3,2.5-5.7,6.7-5.7,9.9c0,1.6,3.1,18.5,7.1,37.4c3.9,18.9,10.1,50,13.9,68.9c4.5,22.3,7.5,35.2,8.4,36.5c2.5,3.4,6.6,5.7,10.3,5.7c5.7,0,44-8,46.3-9.7c3.2-2.4,5.1-5.4,5.6-8.9c0.2-2.3-3.6-22.9-13.3-70.5c-7.5-37-13.9-68.6-14.4-70.1c-1-3.8-5.3-7.8-9.4-8.9c-1.8-0.5-3.4-0.9-3.7-0.8C205,81.5,195.2,83.5,183.5,86z M206.9,99.1c0.5,2.5,0.8,5,0.6,5.6s-7.7,2.5-17.9,4.5c-9.7,1.9-18.1,3.6-18.9,3.9c-1.1,0.3-1.6-0.7-2.3-4.7c-0.6-2.7-0.7-5.3-0.5-5.5c0.4-0.5,13.5-3.4,37.5-8.3C205.7,94.6,206.4,96.6,206.9,99.1z M217.4,151.7c3.8,18.5,7.8,38.1,8.9,43.9c1.1,5.7,2,10.7,1.7,10.9c-0.7,0.7-37.6,8.2-38,7.7c-0.4-0.4-17.7-85.4-17.7-87c0-0.9,4.6-2.1,17.9-4.9c9.8-2.1,18.4-3.9,19.1-3.9C210.5,118.3,212,124.4,217.4,151.7z M232.3,224.6c0.7,3.1,0.7,4.8,0.2,5.2c-0.5,0.2-9,2.1-18.9,4.2c-15.3,3.1-18.3,3.5-18.9,2.5c-0.9-1.5-1.9-8.3-1.3-8.9c0.7-0.7,33.1-7.5,35.9-7.5C231.1,220,231.5,220.4,232.3,224.6z"
         id="path1966"
         style="fill:#444444;fill-opacity:1;stroke-width:0.3;stroke-dasharray:none" /></g></g></g>
</svg>
