<?xml version="1.0" encoding="UTF-8" standalone="no"?>
<!-- Svg Vector Icons : http://www.onlinewebfonts.com/icon -->

<svg
   version="1.1"
   x="0px"
   y="0px"
   viewBox="0 0 256 256"
   enable-background="new 0 0 256 256"
   xml:space="preserve"
   id="svg3196"
   sodipodi:docname="back-inverted.svg"
   inkscape:version="1.2.2 (b0a8486541, 2022-12-01)"
   xmlns:inkscape="http://www.inkscape.org/namespaces/inkscape"
   xmlns:sodipodi="http://sodipodi.sourceforge.net/DTD/sodipodi-0.dtd"
   xmlns="http://www.w3.org/2000/svg"
   xmlns:svg="http://www.w3.org/2000/svg"><defs
   id="defs3200" /><sodipodi:namedview
   id="namedview3198"
   pagecolor="#ffffff"
   bordercolor="#000000"
   borderopacity="0.25"
   inkscape:showpageshadow="2"
   inkscape:pageopacity="0.0"
   inkscape:pagecheckerboard="0"
   inkscape:deskcolor="#d1d1d1"
   showgrid="false"
   inkscape:zoom="0.921875"
   inkscape:cx="128"
   inkscape:cy="128"
   inkscape:window-width="1440"
   inkscape:window-height="831"
   inkscape:window-x="0"
   inkscape:window-y="32"
   inkscape:window-maximized="1"
   inkscape:current-layer="svg3196" />
<metadata
   id="metadata3188"> Svg Vector Icons : http://www.onlinewebfonts.com/icon </metadata>
<g
   id="g3194"
   transform="matrix(-1,0,0,1,255.875,0)"
   style="fill:#ffffff"><g
     id="g3192"
     style="fill:#ffffff"><path
       fill="#000000"
       d="M 240.2,103.6 156.7,44.7 C 152.9,42 147.8,40.6 142.8,40.6 V 40.5 H 128 v 14.6 29.2 c 0,0 -118.1,-10.9 -118.1,131.2 0,0 15.2,-72.9 118.1,-72.9 v 29.2 14.6 h 14.8 v -0.1 c 5,0 10.1,-1.3 13.9,-4.1 l 83.5,-58.9 c 7.7,-5.5 7.7,-14.3 0,-19.7 z m -24.1,16.6 -48.6,34.1 c -2.4,1.5 -9.5,8.7 -12.6,8.7 v 0 h -9.3 V 146.4 130.7 C 84.6,110.6 36.3,154.3 36.3,154.3 62.5,85.9 145.6,99.2 145.6,99.2 V 83.4 66.8 h 9.3 v 0 c 3.2,0 10.2,7.2 12.6,8.7 l 48.6,34.1 c 4.8,2.9 4.8,7.7 0,10.6 z"
       id="path3190"
       style="fill:#ffffff" /></g></g>
</svg>
