<?xml version="1.0" encoding="UTF-8" standalone="no"?>
<!-- Svg Vector Icons : http://www.onlinewebfonts.com/icon -->

<svg
   version="1.1"
   x="0px"
   y="0px"
   viewBox="0 0 256 256"
   enable-background="new 0 0 256 256"
   xml:space="preserve"
   id="svg14"
   sodipodi:docname="bulb.svg"
   inkscape:version="1.2.2 (b0a8486541, 2022-12-01)"
   xmlns:inkscape="http://www.inkscape.org/namespaces/inkscape"
   xmlns:sodipodi="http://sodipodi.sourceforge.net/DTD/sodipodi-0.dtd"
   xmlns="http://www.w3.org/2000/svg"
   xmlns:svg="http://www.w3.org/2000/svg"><defs
   id="defs18" /><sodipodi:namedview
   id="namedview16"
   pagecolor="#ffffff"
   bordercolor="#000000"
   borderopacity="0.25"
   inkscape:showpageshadow="2"
   inkscape:pageopacity="0.0"
   inkscape:pagecheckerboard="0"
   inkscape:deskcolor="#d1d1d1"
   showgrid="false"
   inkscape:zoom="0.921875"
   inkscape:cx="-49.898305"
   inkscape:cy="128"
   inkscape:window-width="1440"
   inkscape:window-height="831"
   inkscape:window-x="0"
   inkscape:window-y="32"
   inkscape:window-maximized="1"
   inkscape:current-layer="svg14" />
<metadata
   id="metadata2"> Svg Vector Icons : http://www.onlinewebfonts.com/icon </metadata>
<g
   id="g12"
   transform="matrix(0.93921407,0,0,0.91710747,6.3961485,12.555015)"><g
     id="g10"><g
       id="g8"><path
         fill="#000000"
         d="m 124.7,10 c -36.3,2.7 -65.6,25.3 -76.3,59 -3,9.3 -3.9,15.5 -3.9,26.3 0,12.9 2,22.8 6.9,34 4.6,10.6 10.2,18.3 21.4,29.5 6.4,6.4 9,9.4 11,12.9 3.6,6 5.8,12.3 6.3,18.3 0.5,5.4 1.4,7 4,7 h 1.5 v 7.3 c 0,8.3 0.9,12.7 3.2,16 1.4,2 5.2,5.4 6.6,5.8 0.3,0.1 1,1.7 1.4,3.5 4.2,16.3 24,21.9 36,10.2 3,-2.8 5.6,-7.7 6.2,-11 0.3,-1.9 0.7,-2.4 2.7,-3.6 2.7,-1.5 4.7,-3.8 6.5,-7.1 1,-2 1.2,-3.4 1.5,-11.6 l 0.3,-9.3 1.9,-0.4 c 2.5,-0.5 3.1,-1.6 3.6,-5.9 0.5,-5.7 1.8,-9.8 4.3,-15.2 3.1,-6.4 5.9,-10.1 14,-18.1 3.7,-3.6 7.8,-8.1 9.3,-9.9 13.1,-16.5 19.7,-37.7 18.1,-58.8 -0.9,-12.3 -3.4,-21.4 -8.8,-32.2 -13.4,-27 -40.2,-44.9 -70,-46.7 -3.2,0 -6.7,-0.1 -7.7,0 z m 16.3,9.7 c 36.2,7.1 62,38.5 62,75.3 0,17.1 -5.4,33.3 -15.8,46.8 -1.4,1.8 -6,6.7 -10.3,11 -11.3,11.1 -16.6,19.9 -18.8,31 l -0.9,4.7 -29.4,0.2 -29.4,0.1 v -1.3 c 0,-2.5 -2.2,-9.8 -4.3,-14.4 -3.4,-7.3 -7.4,-12.5 -16.2,-21.4 -9.2,-9.2 -13.6,-15.1 -17.8,-24 -5.5,-11.4 -7.3,-21 -7,-34.9 0.4,-13 2.5,-21.6 7.6,-32 7.7,-15.4 21.9,-29 37.3,-35.8 13.9,-6.1 29.3,-7.9 43,-5.3 z m 10.4,185.9 c -0.2,9 -0.4,9.9 -3.9,12.4 -1.4,1.1 -2.2,1.2 -19.5,1.2 -17.4,0 -18,-0.1 -19.6,-1.2 -0.8,-0.6 -2.1,-2 -2.7,-3 -1.2,-1.6 -1.3,-2.4 -1.3,-9.6 0,-5.8 0.2,-7.8 0.7,-8.1 0.3,-0.1 11,-0.2 23.6,-0.2 h 22.9 z m -10.8,22.8 c 0,0.4 -0.8,2 -1.8,3.4 -5.5,8 -18,7.5 -22.3,-1 -0.5,-1.2 -1,-2.3 -1,-2.6 0,-0.3 4.2,-0.5 12.6,-0.5 10.3,-0.1 12.5,0 12.5,0.7 z"
         id="path4" /><path
         fill="#000000"
         d="m 127.7,37.7 c -2.2,1.3 -3,3.3 -2.1,5.6 0.5,1.4 3.2,2.5 6.1,2.5 1.4,0 4.1,0.3 5.9,0.6 15.2,2.7 27.9,12.2 34.8,26 3.1,6.3 4.6,11.6 5.1,18.6 0.3,3.6 0.7,5.1 1.4,5.9 1.5,1.5 4.5,1.4 6,-0.2 1.1,-1.1 1.2,-1.6 0.9,-6.4 -1.6,-27.2 -23,-49.5 -50.5,-52.6 -6,-0.8 -6.2,-0.8 -7.6,0 z"
         id="path6" /></g></g></g>
</svg>
