<?xml version="1.0" encoding="UTF-8" standalone="no"?>
<!-- Svg Vector Icons : http://www.onlinewebfonts.com/icon -->

<svg
   version="1.1"
   x="0px"
   y="0px"
   viewBox="0 0 256 256"
   enable-background="new 0 0 256 256"
   xml:space="preserve"
   id="svg3058"
   sodipodi:docname="chapter.svg"
   inkscape:version="1.2.2 (b0a8486541, 2022-12-01)"
   xmlns:inkscape="http://www.inkscape.org/namespaces/inkscape"
   xmlns:sodipodi="http://sodipodi.sourceforge.net/DTD/sodipodi-0.dtd"
   xmlns="http://www.w3.org/2000/svg"
   xmlns:svg="http://www.w3.org/2000/svg"><defs
   id="defs3062" /><sodipodi:namedview
   id="namedview3060"
   pagecolor="#ffffff"
   bordercolor="#000000"
   borderopacity="0.25"
   inkscape:showpageshadow="2"
   inkscape:pageopacity="0.0"
   inkscape:pagecheckerboard="0"
   inkscape:deskcolor="#d1d1d1"
   showgrid="false"
   inkscape:zoom="0.921875"
   inkscape:cx="-49.898305"
   inkscape:cy="128"
   inkscape:window-width="1440"
   inkscape:window-height="831"
   inkscape:window-x="0"
   inkscape:window-y="32"
   inkscape:window-maximized="1"
   inkscape:current-layer="svg3058" />
<metadata
   id="metadata3052"> Svg Vector Icons : http://www.onlinewebfonts.com/icon </metadata>
<g
   id="g3056"
   transform="matrix(0.95124517,0,0,0.89037924,7.0859198,14.960349)"> <path
   fill="#000000"
   d="M 200.8,246 H 55.2 C 40.8,246 29.6,234.2 29.6,220.4 V 35.6 C 29.7,21.8 40.8,10 55.2,10 h 146.2 c 13.8,0 24.9,11.8 24.9,25.6 v 184.9 c 0,14.4 -11.1,25.5 -25.5,25.5 z M 76.9,17.2 H 55.2 c -10.5,0 -18.4,6.6 -18.4,18.4 v 184.9 c 0,12.5 8.5,18.4 18.4,18.4 H 76.8 V 17.2 Z m 94.4,0 h -36.7 v 63.6 l 13.1,-7.2 c 0.7,0 3.9,-2.6 5.2,-2.6 0.7,0 4.6,2.6 5.2,2.6 l 13.1,7.2 V 17.2 Z m 47.8,18.4 c 0,-14.4 -12.5,-18.4 -18.4,-18.4 h -22.9 v 68.2 c 0,1.3 -0.7,2.6 -1.3,3.3 -0.7,0.7 -1.3,0.7 -2,0.7 -0.7,0 -1.3,0 -1.3,-0.7 L 152.9,78.2 132.6,88.7 c -2,0.7 -3.9,0 -4.6,-2 0,-0.7 -0.7,-1.3 -0.7,-1.3 V 17.2 H 83.4 v 221.6 h 117.3 c 8.5,0 18.4,-5.2 18.4,-18.4 z m -11.8,142.2 c -0.7,0 -2,-0.7 -2.6,-1.3 -0.7,-0.7 -1.3,-1.3 -1.3,-2.6 0,-0.7 0.7,-2 1.3,-2.6 1.3,-1.3 3.3,-1.3 5.2,0 0.7,0.7 1.3,1.3 1.3,2.6 0,0.7 -0.7,2 -1.3,2.6 -1.3,1.3 -1.9,1.3 -2.6,1.3 z m -3.9,15.1 c 0,-2 1.3,-3.3 3.3,-3.3 2,0 3.3,1.3 3.3,3.3 v 11.8 c 0,15.1 -9.2,25.6 -19,25.6 h -60.3 c -2,0 -3.3,-1.3 -3.3,-3.3 0,-2 1.3,-3.3 3.3,-3.3 H 191 c 5.9,0 12.5,-7.9 12.5,-18.4 v -12.4 z"
   id="path3054" /></g>
</svg>
