<?xml version="1.0" encoding="utf-8"?>
<!-- Svg Vector Icons : http://www.onlinewebfonts.com/icon -->
<!DOCTYPE svg PUBLIC "-//W3C//DTD SVG 1.1//EN" "http://www.w3.org/Graphics/SVG/1.1/DTD/svg11.dtd">
<svg version="1.1" xmlns="http://www.w3.org/2000/svg" xmlns:xlink="http://www.w3.org/1999/xlink" x="0px" y="0px" viewBox="0 0 256 256" enable-background="new 0 0 256 256" xml:space="preserve">
<metadata> Svg Vector Icons : http://www.onlinewebfonts.com/icon </metadata>
<g> <path fill="#000000" d="M200.8,246H55.2c-14.4,0-25.6-11.8-25.6-25.6V35.6C29.7,21.8,40.8,10,55.2,10h146.2 c13.8,0,24.9,11.8,24.9,25.6v184.9C226.3,234.9,215.2,246,200.8,246z M76.9,17.2H55.2c-10.5,0-18.4,6.6-18.4,18.4v184.9 c0,12.5,8.5,18.4,18.4,18.4h21.6V17.2z M171.3,17.2h-36.7v63.6l13.1-7.2c0.7,0,3.9-2.6,5.2-2.6c0.7,0,4.6,2.6,5.2,2.6l13.1,7.2 V17.2L171.3,17.2z M219.1,35.6c0-14.4-12.5-18.4-18.4-18.4h-22.9v68.2c0,1.3-0.7,2.6-1.3,3.3c-0.7,0.7-1.3,0.7-2,0.7 c-0.7,0-1.3,0-1.3-0.7l-20.3-10.5l-20.3,10.5c-2,0.7-3.9,0-4.6-2c0-0.7-0.7-1.3-0.7-1.3V17.2H83.4v221.6h117.3 c8.5,0,18.4-5.2,18.4-18.4V35.6L219.1,35.6z M207.3,177.8c-0.7,0-2-0.7-2.6-1.3c-0.7-0.7-1.3-1.3-1.3-2.6c0-0.7,0.7-2,1.3-2.6 c1.3-1.3,3.3-1.3,5.2,0c0.7,0.7,1.3,1.3,1.3,2.6c0,0.7-0.7,2-1.3,2.6C208.6,177.8,208,177.8,207.3,177.8L207.3,177.8z M203.4,192.9 c0-2,1.3-3.3,3.3-3.3c2,0,3.3,1.3,3.3,3.3v11.8c0,15.1-9.2,25.6-19,25.6h-60.3c-2,0-3.3-1.3-3.3-3.3c0-2,1.3-3.3,3.3-3.3h60.3 c5.9,0,12.5-7.9,12.5-18.4V192.9z"/></g>
</svg>