<?xml version="1.0" encoding="UTF-8" standalone="no"?>
<svg
   version="1.1"
   width="29"
   height="48"
   viewBox="0 0 29 48"
   enable-background="new 0 0 76.00 76.00"
   xml:space="preserve"
   id="svg4"
   sodipodi:docname="chevron-first.svg"
   inkscape:export-xdpi="96"
   inkscape:export-ydpi="96"
   inkscape:version="1.2.2 (b0a8486541, 2022-12-01)"
   xmlns:inkscape="http://www.inkscape.org/namespaces/inkscape"
   xmlns:sodipodi="http://sodipodi.sourceforge.net/DTD/sodipodi-0.dtd"
   xmlns="http://www.w3.org/2000/svg"
   xmlns:svg="http://www.w3.org/2000/svg"
   xmlns:rdf="http://www.w3.org/1999/02/22-rdf-syntax-ns#"
   xmlns:cc="http://creativecommons.org/ns#"
   xmlns:dc="http://purl.org/dc/elements/1.1/"><metadata
   id="metadata10"><rdf:RDF><cc:Work
       rdf:about=""><dc:format>image/svg+xml</dc:format><dc:type
         rdf:resource="http://purl.org/dc/dcmitype/StillImage" /></cc:Work></rdf:RDF></metadata><defs
   id="defs8" /><sodipodi:namedview
   pagecolor="#ffffff"
   bordercolor="#666666"
   borderopacity="1"
   objecttolerance="10"
   gridtolerance="10"
   guidetolerance="10"
   inkscape:pageopacity="0"
   inkscape:pageshadow="2"
   inkscape:window-width="1440"
   inkscape:window-height="831"
   id="namedview6"
   showgrid="true"
   inkscape:zoom="5.6041667"
   inkscape:cx="36.758364"
   inkscape:cy="43.895911"
   inkscape:window-x="0"
   inkscape:window-y="32"
   inkscape:window-maximized="1"
   inkscape:current-layer="svg4"
   inkscape:document-rotation="0"
   inkscape:snap-page="true"
   inkscape:showpageshadow="2"
   inkscape:pagecheckerboard="0"
   inkscape:deskcolor="#d1d1d1"><inkscape:grid
     type="xygrid"
     id="grid835"
     originx="0"
     originy="0" /></sodipodi:namedview>
	
<g
   id="g546"
   transform="translate(-0.30325318)"><path
     fill="#000000"
     fill-opacity="1"
     stroke-width="0.205196"
     stroke-linejoin="round"
     d="M 4.8190657,24.000001 C 9.8693507,29.333334 14.919636,34.666667 19.969921,40 18.601167,40 17.232414,40 15.86366,40 10.676858,34.666629 5.4900557,29.333259 0.30325318,23.999888 5.4900557,18.666592 10.676858,13.333296 15.86366,8.0000001 c 1.368754,0 2.737507,0 4.106261,0 C 14.919636,13.333334 9.8693507,18.666667 4.8190657,24.000001 Z"
     id="path2"
     sodipodi:nodetypes="ccccccc" /><path
     fill="#000000"
     fill-opacity="1"
     stroke-width="0.205196"
     stroke-linejoin="round"
     d="M 14.136587,24.000001 C 19.186872,29.333334 24.237157,34.666667 29.287442,40 27.918688,40 26.549934,40 25.18118,40 19.994378,34.666629 14.807577,29.333259 9.6207747,23.999888 14.807577,18.666592 19.994378,13.333296 25.18118,8.0000001 c 1.368754,0 2.737508,0 4.106262,0 C 24.237157,13.333334 19.186872,18.666667 14.136587,24.000001 Z"
     id="path833"
     sodipodi:nodetypes="ccccccc" /></g></svg>
