<?xml version="1.0" encoding="UTF-8" standalone="no"?>
<!-- Svg Vector Icons : http://www.onlinewebfonts.com/icon -->

<svg
   version="1.1"
   x="0px"
   y="0px"
   viewBox="0 0 256 256"
   enable-background="new 0 0 256 256"
   xml:space="preserve"
   id="svg20"
   sodipodi:docname="copy.svg"
   inkscape:version="1.2.2 (b0a8486541, 2022-12-01)"
   xmlns:inkscape="http://www.inkscape.org/namespaces/inkscape"
   xmlns:sodipodi="http://sodipodi.sourceforge.net/DTD/sodipodi-0.dtd"
   xmlns="http://www.w3.org/2000/svg"
   xmlns:svg="http://www.w3.org/2000/svg"><defs
   id="defs24" /><sodipodi:namedview
   id="namedview22"
   pagecolor="#ffffff"
   bordercolor="#000000"
   borderopacity="0.25"
   inkscape:showpageshadow="2"
   inkscape:pageopacity="0.0"
   inkscape:pagecheckerboard="0"
   inkscape:deskcolor="#d1d1d1"
   showgrid="false"
   inkscape:zoom="0.921875"
   inkscape:cx="-26.033898"
   inkscape:cy="128.54237"
   inkscape:window-width="1440"
   inkscape:window-height="868"
   inkscape:window-x="0"
   inkscape:window-y="-5"
   inkscape:window-maximized="1"
   inkscape:current-layer="svg20" />
<metadata
   id="metadata2"> Svg Vector Icons : http://www.onlinewebfonts.com/icon </metadata>
<g
   id="g18"
   style="fill:#2c2c2c;fill-opacity:1"><g
     id="g16"
     style="fill:#2c2c2c;fill-opacity:1"><g
       id="g14"
       style="fill:#2c2c2c;fill-opacity:1"><path
         fill="#000000"
         d="M73.7,2.8c-8,2-14.2,8.5-15.9,16.4c-0.3,1.6-0.5,8-0.5,16.3v13.8H43.5c-8.3,0-14.7,0.2-16.3,0.5c-8.2,1.8-14.8,8.4-16.6,16.6c-0.9,4.1-0.7,167.6,0.1,170.9c2.1,7.9,7.9,13.7,15.8,15.8c2,0.5,16.5,0.7,77.9,0.7c61.4,0,75.9-0.1,77.9-0.7c7.8-2.1,13.7-8,15.8-15.8c0.5-1.8,0.7-6.3,0.7-16.6v-14.1h13.8c8.3,0,14.7-0.2,16.3-0.5c7.9-1.7,14.3-7.9,16.4-15.9c0.5-2,0.7-14.7,0.7-67c0-58.1-0.1-64.7-0.8-66.1c-1.1-2.2-51.6-52.8-53.9-54c-1.8-0.9-3.4-0.9-58.5-0.9C89.5,2.2,75.6,2.4,73.7,2.8z M176.8,42.2c0.1,23.6,0.2,24.3,1.2,25.7c0.5,0.7,2,1.9,3.1,2.5c2.2,1.1,2.3,1.1,25.7,1.1h23.5l-0.1,58l-0.1,58l-1.6,1.6l-1.6,1.6h-75.2H76.4l-1.6-1.6l-1.6-1.6v-83v-83l1.2-1.3c0.7-0.7,1.7-1.5,2.2-1.7c0.5-0.2,23.3-0.4,50.5-0.4l49.5,0L176.8,42.2z M207.4,41l14.7,14.7h-14.9h-14.8V41c0-8.1,0-14.7,0.1-14.7C192.6,26.2,199.3,32.9,207.4,41z M57.2,126.4c0,49.6,0.1,61.8,0.7,63.8c2.1,8,8.6,14.3,16.4,15.9c1.8,0.4,18.2,0.5,55.7,0.5h53.1l-0.1,14l-0.1,14l-1.6,1.6l-1.6,1.6h-75.2H29.2l-1.6-1.6l-1.6-1.6v-83v-83l1.2-1.3c0.7-0.7,1.7-1.5,2.2-1.7c0.5-0.2,7-0.4,14.4-0.4l13.4,0L57.2,126.4L57.2,126.4z"
         id="path4"
         style="fill:#2c2c2c;fill-opacity:1" /><path
         fill="#000000"
         d="M93.4,34.3c-3.3,1.4-5.2,5.2-4.5,8.9c0.4,2.3,2.9,5,5.1,5.7c1.2,0.4,11.6,0.5,31.9,0.4c29.6-0.1,30.1-0.1,31.5-1.2c4.8-3.6,4.8-9.6,0-13.2c-1.4-1-1.8-1-32-1.1C100.7,33.7,94.6,33.7,93.4,34.3z"
         id="path6"
         style="fill:#2c2c2c;fill-opacity:1" /><path
         fill="#000000"
         d="M93.4,65.7c-3.3,1.4-5.2,5.2-4.5,8.9c0.4,2.3,2.9,5,5.1,5.7c1.2,0.4,11.6,0.5,31.9,0.4c29.6-0.1,30.1-0.1,31.5-1.2c4.8-3.6,4.8-9.6,0-13.2c-1.4-1-1.8-1-32-1.1C100.7,65.1,94.6,65.2,93.4,65.7z"
         id="path8"
         style="fill:#2c2c2c;fill-opacity:1" /><path
         fill="#000000"
         d="M93.4,97.2c-3.3,1.4-5.2,5.2-4.5,8.9c0.4,2.3,2.9,5,5.1,5.7c1.2,0.4,19.7,0.5,58.7,0.4c56.5-0.1,56.9-0.1,58.2-1.2c2.6-1.9,3.4-3.5,3.4-6.6s-0.8-4.7-3.4-6.6c-1.3-1-1.6-1-58.7-1.1C105.3,96.6,94.6,96.7,93.4,97.2z"
         id="path10"
         style="fill:#2c2c2c;fill-opacity:1" /><path
         fill="#000000"
         d="M93.4,128.7c-3.3,1.4-5.2,5.2-4.5,8.9c0.4,2.3,2.9,5,5.1,5.7c1.2,0.4,16.2,0.5,46.9,0.4c44.6-0.1,45.1-0.1,46.4-1.2c2.6-1.9,3.4-3.5,3.4-6.6s-0.8-4.7-3.4-6.6c-1.3-1-1.8-1-46.9-1.1C103.3,128,94.6,128.1,93.4,128.7z"
         id="path12"
         style="fill:#2c2c2c;fill-opacity:1" /></g></g></g>
</svg>
