<?xml version="1.0" encoding="UTF-8" standalone="yes"?>
<!DOCTYPE svg PUBLIC "-//W3C//DTD SVG 1.1//EN" "http://www.w3.org/Graphics/SVG/1.1/DTD/svg11.dtd">
<!-- Created with Vectornator (http://vectornator.io/) --><svg xmlns="http://www.w3.org/2000/svg" xmlns:xlink="http://www.w3.org/1999/xlink" height="100%" stroke-miterlimit="10" style="fill-rule:nonzero;clip-rule:evenodd;stroke-linecap:round;stroke-linejoin:round;zoom: 1;" version="1.1" viewBox="0 0 36 36" width="100%" xml:space="preserve"><defs></defs><g id="Untitled"><path d="M32.9118,9.08316 L28.2478,13.747 L21.7478,7.24708 L26.4118,2.58318 C27.1938,1.80102 28.4598,1.80102 29.2398,2.58318 L32.9118,6.25512 C33.6938,7.035 33.6938,8.30102 32.9118,9.08316 M5.99834,23.496 L20.6274,8.36784 L27.1274,14.8678 L12.4983,29.996 L5.99834,29.996 L5.99834,23.496 M27.7414,4.0871 L24.6634,7.16506 L28.335,10.8366 L31.413,7.75858 L27.7414,4.0871 M24.2144,14.9572 L20.543,11.2856 L8,24.3284 L8,28 L11.6716,28 L24.2144,14.9572 " stroke="none" fill-rule="nonzero" fill="#444444" opacity="1"></path></g><g id="g961"><path stroke="#444444" stroke-width="1.99999" d="M32.9994,13.2637 L32.9994,30.4292 C32.9994,31.8538 31.8526,33.0006 30.428,33.0006 L5.57087,33.0006 C4.14629,33.0006 2.99944,31.8538 2.99944,30.4292 L2.99944,5.57199 C2.99944,4.14741 4.14629,3.00055 5.57087,3.00055 L22.7363,3.00055 " fill="none" stroke-linecap="butt" opacity="1" stroke-linejoin="round"></path></g></svg>