<?xml version="1.0" encoding="UTF-8" standalone="no"?>
<!-- Svg Vector Icons : http://www.onlinewebfonts.com/icon -->

<svg
   version="1.1"
   x="0px"
   y="0px"
   viewBox="0 0 256 256"
   enable-background="new 0 0 256 256"
   xml:space="preserve"
   id="svg8"
   sodipodi:docname="export-xray.svg"
   inkscape:version="1.2.2 (b0a8486541, 2022-12-01)"
   xmlns:inkscape="http://www.inkscape.org/namespaces/inkscape"
   xmlns:sodipodi="http://sodipodi.sourceforge.net/DTD/sodipodi-0.dtd"
   xmlns="http://www.w3.org/2000/svg"
   xmlns:svg="http://www.w3.org/2000/svg"><defs
   id="defs12" /><sodipodi:namedview
   id="namedview10"
   pagecolor="#ffffff"
   bordercolor="#000000"
   borderopacity="0.25"
   inkscape:showpageshadow="2"
   inkscape:pageopacity="0.0"
   inkscape:pagecheckerboard="0"
   inkscape:deskcolor="#d1d1d1"
   showgrid="false"
   inkscape:zoom="0.921875"
   inkscape:cx="-155.11864"
   inkscape:cy="128"
   inkscape:window-width="1440"
   inkscape:window-height="831"
   inkscape:window-x="0"
   inkscape:window-y="32"
   inkscape:window-maximized="1"
   inkscape:current-layer="svg8" />
<metadata
   id="metadata2"> Svg Vector Icons : http://www.onlinewebfonts.com/icon </metadata>
<g
   id="g6"
   style="fill:#444444;fill-opacity:1"
   transform="matrix(0.91892371,0,0,0.9375909,10.590821,9.9282489)"> <path
   fill="#000000"
   d="m 163.4,39.5 -47.2,47.2 42.2,36.5 45.2,-45.3 30.5,30.6 V 10 h -98.3 l 27.6,29.5 z m 39.1,22.8 -45.2,45.3 -22.7,-22.8 45.2,-45.3 -16.4,-17.8 h 59 v 59 z M 33.6,234.2 V 21.8 h 76.7 V 10 H 21.8 V 246 H 234.2 V 133.9 h -11.8 c 0,0 0.1,85.7 0,100.3 M 63.1,98.5 h 41.3 v 11.8 H 63.1 V 98.5 Z m 0,53.1 h 129.8 v 11.8 H 63.1 v -11.8 z m 0,41.3 h 129.8 v 11.8 H 63.1 v -11.8 z"
   id="path4"
   style="fill:#444444;fill-opacity:1" /></g>
</svg>
