<?xml version="1.0" encoding="utf-8"?>
<!-- Svg Vector Icons : http://www.onlinewebfonts.com/icon -->
<!DOCTYPE svg PUBLIC "-//W3C//DTD SVG 1.1//EN" "http://www.w3.org/Graphics/SVG/1.1/DTD/svg11.dtd">
<svg version="1.1" xmlns="http://www.w3.org/2000/svg" xmlns:xlink="http://www.w3.org/1999/xlink" x="0px" y="0px" viewBox="0 0 256 256" enable-background="new 0 0 256 256" xml:space="preserve">
<metadata> Svg Vector Icons : http://www.onlinewebfonts.com/icon </metadata>
<g> <path fill="#000000" d="M163.4,39.5l-47.2,47.2l42.2,36.5l45.2-45.3l30.5,30.6V10h-98.3L163.4,39.5L163.4,39.5L163.4,39.5z  M202.5,62.3l-45.2,45.3l-22.7-22.8l45.2-45.3l-16.4-17.8h59v59L202.5,62.3L202.5,62.3z M33.6,234.2V21.8h76.7V10H21.8v236h212.4 V133.9h-11.8c0,0,0.1,85.7,0,100.3 M63.1,98.5h41.3v11.8H63.1V98.5L63.1,98.5L63.1,98.5z M63.1,151.6h129.8v11.8H63.1V151.6 L63.1,151.6L63.1,151.6z M63.1,192.9h129.8v11.8H63.1V192.9L63.1,192.9L63.1,192.9z"/></g>
</svg>