<?xml version="1.0" encoding="utf-8" standalone="yes"?>
<!DOCTYPE svg PUBLIC "-//W3C//DTD SVG 1.1//EN" "http://www.w3.org/Graphics/SVG/1.1/DTD/svg11.dtd">
<!-- Svg Vector Icons : http://www.onlinewebfonts.com/icon --><svg xmlns="http://www.w3.org/2000/svg" xmlns:xlink="http://www.w3.org/1999/xlink" version="1.1" x="0px" y="0px" viewBox="0 0 256 256" enable-background="new 0 0 256 256" xml:space="preserve" style="zoom: 1;"><metadata> Svg Vector Icons : http://www.onlinewebfonts.com/icon </metadata><g><g><path fill="#444444" d="M113.1,208.4 H111 l-1.8,-1.7 c-1.8,-1.9 -1.7,-4.2 -1.7,-5 c0.5,-14.1 6.8,-83.1 80,-86.1 V93.4 c-0.1,-1.3 -0.1,-4.1 1.9,-6.3 c2.3,-2.6 5.9,-3.2 10.1,-1.3 l1,0.4 l41.1,44.7 c0.8,1 4.3,5.3 4.3,10.5 c0,5.3 -4.3,9.9 -5.2,10.8 l-41.2,47.4 c-1.1,1.1 -3.6,3.4 -6.9,3.4 c-2.6,0 -4.8,-1.4 -6,-3.8 c-0.9,-1.6 -1.3,-3.7 -1.3,-6.5 v-26.9 c-11.9,-0.3 -46.5,2.1 -66.7,38.9 C117.4,207 115.4,208.4 113.1,208.4 L113.1,208.4 M183.8,155.5 c4.5,0 7.4,0.4 7.5,0.4 l4.3,0.6 v32.1 l37.8,-43.5 c1.3,-1.4 2.5,-3.2 2.5,-3.9 c0,-1 -1,-2.9 -1.8,-3.8 l-36.4,-39.6 l0,27.7 h-5.1 c-52.2,0 -68.1,35.5 -73,59.7 C141.5,158.7 170.9,155.5 183.8,155.5 L183.8,155.5 "></path><path fill="#444444" d="M171.3,213.1 c-2.5,0.7 -5,1.1 -7.7,1.1 H49.2 c-14.7,0 -26.7,-11.2 -26.7,-25.9 V68.5 c0,-14.7 11.9,-26.7 26.7,-26.7 h114.3 c0,0 0,0 0,0 c0.4,0 0.7,0 1.1,0 c0.1,0 0.2,0 0.4,0 c0.3,0 0.6,0 0.9,0.1 c0.2,0 0.3,0 0.5,0 c0.3,0 0.5,0 0.7,0.1 c0.2,0 0.4,0 0.5,0.1 c0.2,0 0.4,0.1 0.6,0.1 c0.3,0 0.7,0.1 1,0.2 c0.1,0 0.3,0 0.4,0.1 c0.2,0 0.5,0.1 0.7,0.2 c0.1,0 0.1,0 0.2,0 c0.5,0.1 1,0.3 1.5,0.5 h0 c5.9,2 10.9,6 14.1,11.2 h0 c2.4,3.8 3.8,8.2 4,13 h12.5 v-0.6 c0,-4.3 -0.7,-8.5 -2.1,-12.3 h0.2 c-5,-14.3 -18.4,-24.7 -34.3,-25.1 c-0.2,0 -0.4,0 -0.7,0 c-0.1,0 -0.2,0 -0.3,0 h-118 C26.7,29.3 10,46 10,66.7 v122.7 c0,20.7 16.7,37.4 37.4,37.4 h117.9 c11.6,0 22,-5.3 28.8,-13.6 L171.3,213.1 L171.3,213.1 L171.3,213.1 "></path><path fill="#444444" d="M41.3,89.4 h108.3 v12.5 H41.3 V89.4 "></path><path fill="#444444" d="M41.3,122.4 h79.2 v12.5 H41.3 V122.4 "></path><path fill="#444444" d="M41.3,154.1 h56.5 v12.5 H41.3 V154.1 L41.3,154.1 "></path></g></g></svg>