<?xml version="1.0" encoding="UTF-8" standalone="no"?>
<!-- Svg Vector Icons : http://www.onlinewebfonts.com/icon -->

<svg
   version="1.1"
   x="0px"
   y="0px"
   viewBox="0 0 256 256"
   enable-background="new 0 0 256 256"
   xml:space="preserve"
   id="svg8"
   sodipodi:docname="export-xray.svg"
   inkscape:version="1.2.2 (b0a8486541, 2022-12-01)"
   xmlns:inkscape="http://www.inkscape.org/namespaces/inkscape"
   xmlns:sodipodi="http://sodipodi.sourceforge.net/DTD/sodipodi-0.dtd"
   xmlns="http://www.w3.org/2000/svg"
   xmlns:svg="http://www.w3.org/2000/svg"><defs
   id="defs12" /><sodipodi:namedview
   id="namedview10"
   pagecolor="#ffffff"
   bordercolor="#000000"
   borderopacity="0.25"
   inkscape:showpageshadow="2"
   inkscape:pageopacity="0.0"
   inkscape:pagecheckerboard="0"
   inkscape:deskcolor="#d1d1d1"
   showgrid="false"
   inkscape:zoom="0.921875"
   inkscape:cx="-49.898305"
   inkscape:cy="128"
   inkscape:window-width="1440"
   inkscape:window-height="831"
   inkscape:window-x="0"
   inkscape:window-y="32"
   inkscape:window-maximized="1"
   inkscape:current-layer="svg8" />
<metadata
   id="metadata2"> Svg Vector Icons : http://www.onlinewebfonts.com/icon </metadata>
<g
   id="g6"
   style="fill:#444444;fill-opacity:1"> <path
   fill="#000000"
   d="M163.4,39.5l-47.2,47.2l42.2,36.5l45.2-45.3l30.5,30.6V10h-98.3L163.4,39.5L163.4,39.5L163.4,39.5z  M202.5,62.3l-45.2,45.3l-22.7-22.8l45.2-45.3l-16.4-17.8h59v59L202.5,62.3L202.5,62.3z M33.6,234.2V21.8h76.7V10H21.8v236h212.4 V133.9h-11.8c0,0,0.1,85.7,0,100.3 M63.1,98.5h41.3v11.8H63.1V98.5L63.1,98.5L63.1,98.5z M63.1,151.6h129.8v11.8H63.1V151.6 L63.1,151.6L63.1,151.6z M63.1,192.9h129.8v11.8H63.1V192.9L63.1,192.9L63.1,192.9z"
   id="path4"
   style="fill:#444444;fill-opacity:1" /></g>
</svg>
