<?xml version="1.0" encoding="utf-8"?>
<!-- Svg Vector Icons : http://www.onlinewebfonts.com/icon -->
<!DOCTYPE svg PUBLIC "-//W3C//DTD SVG 1.1//EN" "http://www.w3.org/Graphics/SVG/1.1/DTD/svg11.dtd">
<svg version="1.1" xmlns="http://www.w3.org/2000/svg" xmlns:xlink="http://www.w3.org/1999/xlink" x="0px" y="0px" viewBox="0 0 256 256" enable-background="new 0 0 256 256" xml:space="preserve">
<metadata> Svg Vector Icons : http://www.onlinewebfonts.com/icon </metadata>
<g><g><path fill="#000000" d="M242.8,143.7l-50.3-45.6c-3.9-3.2-10.2-3.2-14.2,0c-2.4,1.6-3.2,3.9-3.2,7.1c0,2.4,0.8,4.7,3.2,7.1l33,29.9h-92V58.8c0-5.5-4.7-9.4-10.2-9.4H20.2c-5.5,0-10.2,3.9-10.2,9.4s4.7,9.4,10.2,9.4h78.7v82.6c0,5.5,4.7,9.4,10.2,9.4h101.5l-33,29.9c-2.4,1.6-3.2,3.9-3.2,7.1c0,2.4,0.8,4.7,3.2,7.1c1.6,1.6,4.7,2.4,7.1,2.4c2.4,0,5.5-0.8,7.1-2.4l51.1-46.4c2.4-1.6,3.2-3.9,3.2-7.1C246,148.4,245.2,146.1,242.8,143.7z"/></g></g>
</svg>