<?xml version="1.0" encoding="UTF-8" standalone="no"?>
<!-- Created with Vectornator (http://vectornator.io/) -->

<svg
   height="100%"
   stroke-miterlimit="10"
   style="fill-rule:nonzero;clip-rule:evenodd;stroke-linecap:round;stroke-linejoin:round;"
   version="1.1"
   viewBox="0 0 256 256"
   width="100%"
   xml:space="preserve"
   id="svg321"
   sodipodi:docname="info-slender.svg"
   inkscape:version="1.2.2 (b0a8486541, 2022-12-01)"
   xmlns:inkscape="http://www.inkscape.org/namespaces/inkscape"
   xmlns:sodipodi="http://sodipodi.sourceforge.net/DTD/sodipodi-0.dtd"
   xmlns="http://www.w3.org/2000/svg"
   xmlns:svg="http://www.w3.org/2000/svg"><sodipodi:namedview
   id="namedview323"
   pagecolor="#ffffff"
   bordercolor="#000000"
   borderopacity="0.25"
   inkscape:showpageshadow="2"
   inkscape:pageopacity="0.0"
   inkscape:pagecheckerboard="0"
   inkscape:deskcolor="#d1d1d1"
   showgrid="false"
   inkscape:zoom="0.921875"
   inkscape:cx="-49.898305"
   inkscape:cy="128"
   inkscape:window-width="1440"
   inkscape:window-height="831"
   inkscape:window-x="0"
   inkscape:window-y="32"
   inkscape:window-maximized="1"
   inkscape:current-layer="svg321" />
<defs
   id="defs310" />
<g
   id="Untitled"
   transform="matrix(0.876364,0,0,0.91215974,16.506884,11.257011)">
<g
   opacity="1"
   id="g318">
<path
   d="M 128,10 C 62.8,10 10,62.8 10,128 10,193.2 62.8,246 128,246 193.2,246 246,193.2 246,128 246,62.8 193.2,10 128,10 Z m 0,221.3 C 71,231.3 24.8,185 24.8,128 24.8,71 71,24.8 128,24.8 185,24.8 231.3,71 231.3,128 231.3,185 185,231.3 128,231.3 Z"
   fill="#444444"
   fill-rule="nonzero"
   opacity="1"
   stroke="none"
   id="path312" />
<path
   d="m 126.9,60.6 v 0 c 4.1,0 7.4,3.3 7.4,7.4 v 0 c 0,4.1 -3.3,7.4 -7.4,7.4 v 0 c -4.1,0 -7.4,-3.3 -7.4,-7.4 v 0 c 0.1,-4.1 3.4,-7.4 7.4,-7.4 z"
   fill="#444444"
   fill-rule="nonzero"
   opacity="1"
   stroke="none"
   id="path314" />
<path
   d="m 129.9,94.3 h -7.8 -7.8 c -4.3,0 -7.8,2.9 -7.8,7.6 0,4.7 3.5,6.2 7.8,6.2 h 7.8 v 74.4 h -7.8 c -4.3,0 -7.8,2.4 -7.8,7 0,4.7 3.5,5.9 7.8,5.9 h 7.8 14.3 9.1 c 4.3,0 7.5,-1.2 7.5,-5.9 0,-4.7 -3.2,-7 -7.5,-7 h -9.1 v -80.7 c 0,-4.6 -2.2,-7.5 -6.5,-7.5 z"
   fill="#444444"
   fill-rule="nonzero"
   opacity="1"
   stroke="none"
   id="path316" />
</g>
</g>
</svg>
