<?xml version="1.0" encoding="utf-8"?>
<!-- Svg Vector Icons : http://www.onlinewebfonts.com/icon -->
<!DOCTYPE svg PUBLIC "-//W3C//DTD SVG 1.1//EN" "http://www.w3.org/Graphics/SVG/1.1/DTD/svg11.dtd">
<svg version="1.1" xmlns="http://www.w3.org/2000/svg" xmlns:xlink="http://www.w3.org/1999/xlink" x="0px" y="0px" viewBox="0 0 256 256" enable-background="new 0 0 256 256" xml:space="preserve">
<metadata> Svg Vector Icons : http://www.onlinewebfonts.com/icon </metadata>
<g><g><path fill="#000000" d="M35.8,10C21.6,10,10,21.5,10,35.6c0,14.2,11.5,25.6,25.8,25.6c14.2,0,25.8-11.5,25.8-25.6C61.6,21.5,50,10,35.8,10L35.8,10z M35.8,48.5c-7.1,0-12.9-5.7-12.9-12.8s5.8-12.8,12.9-12.8c7.1,0,12.9,5.7,12.9,12.8S42.9,48.5,35.8,48.5L35.8,48.5z"/><path fill="#000000" d="M35.8,194.7c-14.2,0-25.8,11.5-25.8,25.6c0,14.2,11.5,25.6,25.8,25.6c14.2,0,25.8-11.5,25.8-25.6C61.6,206.2,50,194.7,35.8,194.7L35.8,194.7z M35.8,233.2c-7.1,0-12.9-5.7-12.9-12.8c0-7.1,5.8-12.8,12.9-12.8c7.1,0,12.9,5.7,12.9,12.8C48.7,227.4,42.9,233.2,35.8,233.2L35.8,233.2z"/><path fill="#000000" d="M35.8,102C21.6,102,10,113.5,10,127.7c0,14.2,11.5,25.6,25.8,25.6c14.2,0,25.8-11.5,25.8-25.6C61.6,113.5,50,102,35.8,102L35.8,102z M35.8,140.5c-7.1,0-12.9-5.7-12.9-12.8c0-7.1,5.8-12.8,12.9-12.8c7.1,0,12.9,5.7,12.9,12.8C48.7,134.8,42.9,140.5,35.8,140.5L35.8,140.5z"/><path fill="#000000" d="M95.6,41.3h142.4c4.4,0,7.9-3.5,7.9-7.9c0-4.3-3.5-7.9-7.9-7.9H95.6c-4.4,0-7.9,3.5-7.9,7.9C87.7,37.7,91.3,41.3,95.6,41.3L95.6,41.3z"/><path fill="#000000" d="M238.1,119.9H95.6c-4.4,0-7.9,3.5-7.9,7.9c0,4.3,3.5,7.9,7.9,7.9h142.4c4.4,0,7.9-3.5,7.9-7.9C246,123.4,242.4,119.9,238.1,119.9L238.1,119.9z"/><path fill="#000000" d="M238.1,214.3H95.6c-4.4,0-7.9,3.5-7.9,7.9c0,4.3,3.5,7.9,7.9,7.9h142.4c4.4,0,7.9-3.5,7.9-7.9C246,217.8,242.4,214.3,238.1,214.3L238.1,214.3z"/></g></g>
</svg>