<?xml version="1.0" encoding="utf-8"?>
<!-- Svg Vector Icons : http://www.onlinewebfonts.com/icon -->
<!DOCTYPE svg PUBLIC "-//W3C//DTD SVG 1.1//EN" "http://www.w3.org/Graphics/SVG/1.1/DTD/svg11.dtd">
<svg version="1.1" xmlns="http://www.w3.org/2000/svg" xmlns:xlink="http://www.w3.org/1999/xlink" x="0px" y="0px" viewBox="0 0 256 256" enable-background="new 0 0 256 256" xml:space="preserve">
<metadata> Svg Vector Icons : http://www.onlinewebfonts.com/icon </metadata>
<g><g><g><path fill="#000000" d="M72.9,10.7C66.4,11.7,62.4,13,56,16.4c-6.7,3.4-15,11.3-18.9,17.9c-7.5,12.8-10.9,26.5-10.9,44.2c0,18.7,3.9,33.6,11.9,45.7c3.3,5,11,12.8,16.2,16.4c19.9,13.8,45.7,12.4,61.5-3.4l3.8-3.7l0.1,55.8l0.2,55.9l11.3,0.2l11.3,0.1l0.1-106.8l0.2-106.8l3.3-0.2c1.8-0.1,9.1-0.1,16.1,0.2l12.8,0.4v106.9V246l10.7-0.1l10.7-0.2l0.2-106.8l0.1-106.8h16.6h16.6V21.3V10.4h-23.7c-13.1,0-47.3-0.1-76.1-0.3C88.2,9.9,76.7,10,72.9,10.7z"/></g></g></g>
</svg>