<?xml version="1.0" encoding="UTF-8" standalone="no"?>
<!-- Svg Vector Icons : http://www.onlinewebfonts.com/icon -->

<svg
   version="1.1"
   x="0px"
   y="0px"
   viewBox="0 0 256 256"
   enable-background="new 0 0 256 256"
   xml:space="preserve"
   id="svg305"
   sodipodi:docname="paragraph.svg"
   inkscape:version="1.2.2 (b0a8486541, 2022-12-01)"
   xmlns:inkscape="http://www.inkscape.org/namespaces/inkscape"
   xmlns:sodipodi="http://sodipodi.sourceforge.net/DTD/sodipodi-0.dtd"
   xmlns="http://www.w3.org/2000/svg"
   xmlns:svg="http://www.w3.org/2000/svg"><defs
   id="defs309" /><sodipodi:namedview
   id="namedview307"
   pagecolor="#ffffff"
   bordercolor="#000000"
   borderopacity="0.25"
   inkscape:showpageshadow="2"
   inkscape:pageopacity="0.0"
   inkscape:pagecheckerboard="0"
   inkscape:deskcolor="#d1d1d1"
   showgrid="false"
   inkscape:zoom="0.921875"
   inkscape:cx="-49.898305"
   inkscape:cy="128"
   inkscape:window-width="1440"
   inkscape:window-height="831"
   inkscape:window-x="0"
   inkscape:window-y="32"
   inkscape:window-maximized="1"
   inkscape:current-layer="svg305" />
<metadata
   id="metadata295"> Svg Vector Icons : http://www.onlinewebfonts.com/icon </metadata>
<g
   id="g303"
   transform="matrix(0.7872889,0,0,0.75991665,27.076607,33.606452)"
   style="fill:#444444;fill-opacity:1"><g
     id="g301"
     style="fill:#444444;fill-opacity:1"><g
       id="g299"
       style="fill:#444444;fill-opacity:1"><path
         fill="#000000"
         d="M 72.9,10.7 C 66.4,11.7 62.4,13 56,16.4 49.3,19.8 41,27.7 37.1,34.3 29.6,47.1 26.2,60.8 26.2,78.5 c 0,18.7 3.9,33.6 11.9,45.7 3.3,5 11,12.8 16.2,16.4 19.9,13.8 45.7,12.4 61.5,-3.4 l 3.8,-3.7 0.1,55.8 0.2,55.9 11.3,0.2 11.3,0.1 0.1,-106.8 0.2,-106.8 3.3,-0.2 c 1.8,-0.1 9.1,-0.1 16.1,0.2 L 175,32.3 V 139.2 246 l 10.7,-0.1 10.7,-0.2 0.2,-106.8 0.1,-106.8 h 16.6 16.6 V 21.3 10.4 h -23.7 c -13.1,0 -47.3,-0.1 -76.1,-0.3 C 88.2,9.9 76.7,10 72.9,10.7 Z"
         id="path297"
         style="fill:#444444;fill-opacity:1" /></g></g></g>
</svg>
