<?xml version="1.0" encoding="utf-8"?>
<!-- Svg Vector Icons : http://www.onlinewebfonts.com/icon -->
<!DOCTYPE svg PUBLIC "-//W3C//DTD SVG 1.1//EN" "http://www.w3.org/Graphics/SVG/1.1/DTD/svg11.dtd">
<svg version="1.1" xmlns="http://www.w3.org/2000/svg" xmlns:xlink="http://www.w3.org/1999/xlink" x="0px" y="0px" viewBox="0 0 256 256" enable-background="new 0 0 256 256" xml:space="preserve">
<metadata> Svg Vector Icons : http://www.onlinewebfonts.com/icon </metadata>
<g><g><g><path fill="#000000" d="M24.1,10.2c-5.4,1.1-10.9,5.7-13,10.9L10,23.8V128v104.1l1.1,2.8c1.5,3.8,6.1,8.5,10,10l2.8,1.1l102.5,0.1c68.4,0,103.4,0,105.1-0.4c5.7-1.1,11.3-5.6,13.5-10.9l1.1-2.7V128V23.8l-1.1-2.8c-1.5-3.8-6.1-8.5-10-10l-2.8-1.1l-103,0C71.5,9.9,25.2,10,24.1,10.2z M231.2,17.8c3,0.9,5.1,2.6,6.5,5.4l1.2,2.4v102.1c0,84.1-0.1,102.4-0.6,103.9c-1,2.6-2.8,4.8-5.2,5.9l-2.2,1.1l-101.4,0.1c-73,0.1-102,0-103.8-0.4c-3.3-0.7-5.8-2.6-7.3-5.6l-1.2-2.4V128V25.6l1.2-2.4c1.4-2.8,3.4-4.5,6.3-5.4C27.7,16.8,228,16.8,231.2,17.8z"/><path fill="#000000" d="M54.6,68.4v14.3H128h73.4V68.4V54.1H128H54.6V68.4z M194,68.4v6.9h-66H62v-6.9v-6.9h66h66V68.4z"/><path fill="#000000" d="M54.6,128v14.3H128h73.4V128v-14.3H128H54.6V128z M194,128v6.9h-66H62V128V121h66h66V128z"/><path fill="#000000" d="M54.6,187.5v14.3H128h73.4v-14.3v-14.3H128H54.6V187.5z M194,187.5v6.9h-66H62v-6.9v-6.9h66h66V187.5z"/></g></g></g>
</svg>