<?xml version="1.0" encoding="UTF-8" standalone="no"?>
<!DOCTYPE svg PUBLIC "-//W3C//DTD SVG 1.1//EN" "http://www.w3.org/Graphics/SVG/1.1/DTD/svg11.dtd">
<!-- Created with Vectornator (http://vectornator.io/) -->
<svg height="100%" stroke-miterlimit="10" style="fill-rule:nonzero;clip-rule:evenodd;stroke-linecap:round;stroke-linejoin:round;" version="1.1" viewBox="0 0 256 256" width="100%" xml:space="preserve" xmlns="http://www.w3.org/2000/svg" xmlns:xlink="http://www.w3.org/1999/xlink">
<defs/>
<g id="Untitled">
<path d="M181.9 35.5C178.8 87.3 160.8 114.2 146 136.3C140 145.3 134.6 153.4 130.8 162L125.2 162C121.4 153.4 116 145.2 110 136.3C95.2 114.3 77.2 87.3 74.1 35.5C74.1 35.5 181.9 35.5 181.9 35.5ZM198.1 19.8L57.9 19.8C57.9 119.1 106.9 144.6 113.8 177.8L142.2 177.8C149.1 144.6 198.1 119.1 198.1 19.8ZM165.9 48.7C163.4 83.2 148 114.9 128.7 137.2C144.6 106.3 148.8 74.6 148.8 48.7C148.8 48.7 165.9 48.7 165.9 48.7ZM171.2 222.2L171.2 236.2L84.8 236.2L84.8 222.2C107.2 222.2 113 203.4 114 190.9C114 190.9 140.9 190.9 141.9 190.9C142.9 203.5 148.2 222.2 171.2 222.2ZM211.8 172.7C198 166.5 186.2 170.8 178.8 175.6C186.1 170.8 194.6 161.2 194.5 146.1C169 156.3 171.9 170.6 167.3 179C164.2 184.6 157.4 181.7 157.4 181.7L155.3 185.2C165.3 190.4 195.3 190.6 211.8 172.7ZM235.8 133.2C222.2 134.1 215 143.6 211.2 150.5C215 143.6 217.2 131.4 210.7 119.4C194.9 138.4 203.3 148.5 203.2 157.1C203.2 161.3 198.4 161.2 198.4 161.2L198.5 165.2C201.5 164.8 229.5 158.1 235.8 133.2ZM246 95.1C234.5 99.3 230.7 109.6 229.1 116.5C230.7 109.6 229.5 98.2 220.9 89.5C211.9 109.8 221.7 116.5 223.7 123.9C224.7 127.5 220.5 129.9 220.5 129.9L223.3 131.7C224 131.3 246.8 118.5 246 95.1ZM244 57.8C235.1 64.4 234 74.4 234.4 80.8C234 74.4 230.5 64.7 220.9 59.3C218.3 79.1 228.5 82.4 232.1 88.3C233.9 91.2 232.3 94.8 232.3 94.8L235.1 94.6C235.1 94.6 235.4 93.3 236.8 90.3C239.7 83.9 249.2 77.1 244 57.8ZM225.3 31C225.3 31 222.6 40.8 224.9 48.1C227.3 56 233.5 61.5 233.5 61.5C233.5 61.5 236.8 52.9 234.5 44.5C232.3 36.7 225.3 31 225.3 31ZM100.7 185.1L98.6 181.6C98.6 181.6 91.8 184.5 88.7 178.9C84.1 170.5 87 156.2 61.5 146C61.4 161.1 69.9 170.8 77.2 175.5C69.9 170.7 58 166.4 44.2 172.6C60.7 190.6 90.7 190.4 100.7 185.1ZM57.5 165.2L57.6 161.2C57.6 161.2 52.8 161.3 52.8 157.1C52.7 148.5 61.1 138.4 45.3 119.4C38.8 131.3 41 143.6 44.8 150.5C41 143.6 33.8 134.1 20.2 133.2C26.5 158.1 54.5 164.8 57.5 165.2ZM32.6 131.6L35.4 129.8C35.4 129.8 31.2 127.5 32.2 123.8C34.2 116.4 44 109.7 35 89.4C26.4 98.1 25.2 109.5 26.8 116.4C25.2 109.5 21.4 99.2 9.9 95C9.2 118.5 32 131.3 32.6 131.6ZM19.2 90.3C20.6 93.4 20.9 94.6 20.9 94.6L23.7 94.8C23.7 94.8 22.1 91.2 23.9 88.3C27.6 82.4 37.7 79.1 35.1 59.3C25.4 64.7 22 74.4 21.6 80.8C22 74.4 20.9 64.4 12 57.8C6.8 77.1 16.3 83.9 19.2 90.3ZM21.6 44.4C19.2 52.9 22.6 61.4 22.6 61.4C22.6 61.4 28.8 55.9 31.2 48C33.4 40.7 30.8 30.9 30.8 30.9C30.8 30.9 23.8 36.7 21.6 44.4Z" fill="#444444" fill-rule="nonzero" opacity="1" stroke="none"/>
</g>
</svg>
