<?xml version="1.0" encoding="utf-8" standalone="yes"?>
<!DOCTYPE svg PUBLIC "-//W3C//DTD SVG 1.1//EN" "http://www.w3.org/Graphics/SVG/1.1/DTD/svg11.dtd">
<!-- Svg Vector Icons : http://www.onlinewebfonts.com/icon --><svg xmlns="http://www.w3.org/2000/svg" xmlns:xlink="http://www.w3.org/1999/xlink" version="1.1" x="0px" y="0px" viewBox="0 0 256 256" enable-background="new 0 0 256 256" xml:space="preserve" style="zoom: 1;"><metadata> Svg Vector Icons : http://www.onlinewebfonts.com/icon </metadata><g><g><path fill="#000000" d="M16,55.7 h61.8 c1.8,-4.2 4,-8.2 6.5,-12 H16 c-3.3,0 -6,2.7 -6,6 S12.7,55.7 16,55.7 L16,55.7 M16,146.1 h72.4 c-2.9,-3.8 -5.5,-7.8 -7.7,-12 H16 c-3.3,0 -6,2.7 -6,6 C10,143.4 12.7,146.1 16,146.1 M208.8,224.4 H16 c-3.3,0 -6,2.7 -6,6 s2.7,6 6,6 h192.8 c3.3,0 6,-2.7 6,-6 S212.1,224.4 208.8,224.4 M244.2,182.1 l-36,-36 c15.1,-13.2 24.6,-32.6 24.6,-54.2 c0,-39.9 -32.4,-72.3 -72.3,-72.3 c-39.9,0 -72.3,32.4 -72.3,72.3 c0,39.9 32.4,72.3 72.3,72.3 c13.9,0 26.9,-4 37.9,-10.8 l37.3,37.3 c2.4,2.4 6.2,2.4 8.5,0 C246.6,188.2 246.6,184.4 244.2,182.1 L244.2,182.1 L244.2,182.1 M160.6,152.1 c-33.3,0 -60.2,-27 -60.2,-60.2 s27,-60.2 60.2,-60.2 c33.3,0 60.2,27 60.2,60.2 S193.8,152.1 160.6,152.1 L160.6,152.1 "></path></g></g></svg>