<?xml version="1.0" encoding="UTF-8" standalone="no"?>
<!-- Svg Vector Icons : http://www.onlinewebfonts.com/icon -->

<svg
   version="1.1"
   x="0px"
   y="0px"
   viewBox="0 0 256 256"
   enable-background="new 0 0 256 256"
   xml:space="preserve"
   id="svg12"
   sodipodi:docname="seriesmanager.svg"
   inkscape:version="1.2.2 (b0a8486541, 2022-12-01)"
   xmlns:inkscape="http://www.inkscape.org/namespaces/inkscape"
   xmlns:sodipodi="http://sodipodi.sourceforge.net/DTD/sodipodi-0.dtd"
   xmlns="http://www.w3.org/2000/svg"
   xmlns:svg="http://www.w3.org/2000/svg"><defs
   id="defs16" /><sodipodi:namedview
   id="namedview14"
   pagecolor="#ffffff"
   bordercolor="#000000"
   borderopacity="0.25"
   inkscape:showpageshadow="2"
   inkscape:pageopacity="0.0"
   inkscape:pagecheckerboard="0"
   inkscape:deskcolor="#d1d1d1"
   showgrid="false"
   inkscape:zoom="0.921875"
   inkscape:cx="-49.898305"
   inkscape:cy="128"
   inkscape:window-width="1440"
   inkscape:window-height="831"
   inkscape:window-x="0"
   inkscape:window-y="32"
   inkscape:window-maximized="1"
   inkscape:current-layer="svg12" />
<metadata
   id="metadata2"> Svg Vector Icons : http://www.onlinewebfonts.com/icon </metadata>
<g
   id="g10"
   style="fill:#444444;fill-opacity:1"> <path
   fill="#333333"
   d="M122,7.9L12.5,59c-2.1,1-3.1,3.5-2.1,5.7c0.4,0.9,1.2,1.6,2.1,2.1l110.4,50.8c3.3,1.5,7,1.5,10.3,0 l110.4-50.8c2.1-1,3.1-3.5,2.1-5.7c-0.4-0.9-1.2-1.6-2.1-2.1L134,7.9C130.2,6.1,125.8,6.1,122,7.9z"
   id="path4"
   style="fill:#444444;fill-opacity:1" /> <path
   fill="#333333"
   d="M243.5,124.7l-22.6-10.6c-3.3-1.5-7.1-1.5-10.4,0l-77.4,35.6c-3.3,1.5-7,1.5-10.3,0l-77.4-35.6 c-3.3-1.5-7.1-1.5-10.4,0l-22.6,10.6c-2.1,1-3,3.5-2,5.7c0.4,0.9,1.2,1.6,2.1,2.1l110.4,50.8c3.3,1.5,7,1.5,10.3,0l110.4-50.8 c2.1-1,3.1-3.5,2.1-5.7C245.2,125.9,244.4,125.1,243.5,124.7L243.5,124.7z"
   id="path6"
   style="fill:#444444;fill-opacity:1" /> <path
   fill="#333333"
   d="M243.5,189.8l-22.6-10.6c-3.3-1.5-7.1-1.5-10.4,0l-77.4,35.6c-3.3,1.5-7,1.5-10.3,0l-77.4-35.6 c-3.3-1.5-7.1-1.5-10.4,0l-22.6,10.6c-2.1,1-3.1,3.5-2.1,5.7c0.4,0.9,1.2,1.6,2.1,2.1l110.4,50.8c3.3,1.5,7,1.5,10.3,0l110.4-50.8 c2.1-1,3.1-3.5,2.1-5.7C245.2,191,244.5,190.2,243.5,189.8L243.5,189.8z"
   id="path8"
   style="fill:#444444;fill-opacity:1" /></g>
</svg>
