<?xml version="1.0" encoding="utf-8"?>
<!-- Svg Vector Icons : http://www.onlinewebfonts.com/icon -->
<!DOCTYPE svg PUBLIC "-//W3C//DTD SVG 1.1//EN" "http://www.w3.org/Graphics/SVG/1.1/DTD/svg11.dtd">
<svg version="1.1" xmlns="http://www.w3.org/2000/svg" xmlns:xlink="http://www.w3.org/1999/xlink" x="0px" y="0px" viewBox="0 0 256 256" enable-background="new 0 0 256 256" xml:space="preserve">
<metadata> Svg Vector Icons : http://www.onlinewebfonts.com/icon </metadata>
<g><g><path fill="#000000" d="M242.5,166.7l-16.1-24.2l13.4-17.2c3.4-4.3,4.9-9.7,4.2-15.2c-0.7-5.5-3.5-10.4-7.8-13.7l-105.6-82c-7.9-6.1-21.9-10.9-32.1-10.9L27,3.6c-5.6,0-10.6,2.3-13.7,6.3c-3.1,4-4.1,9.4-2.7,14.9L28.1,94c2.5,9.7,10.6,22.2,18.6,28.4l0.6,0.5l81.9,120.7c3.1,4.6,7.8,7.6,13.2,8.7c1.3,0.3,2.6,0.4,4,0.4c4.1,0,8.1-1.2,11.5-3.6l79.1-53.7C246.3,189,248.8,176.1,242.5,166.7z M36.1,92L18.6,22.7c-0.8-3-0.3-5.7,1.2-7.8c1.6-2,4.1-3.1,7.2-3.1l71.5-0.2c8.2,0,20.5,4.2,27,9.2l105.5,82c2.6,2,4.3,4.9,4.7,8.2c0.4,3.3-0.5,6.5-2.5,9.1l-58.6,75.5c-4,5.2-12.2,6.3-17.4,2.2L53.4,117.1l-2.4-1.9C44.7,109.9,38,99.6,36.1,92z M232.3,188.6l-79.1,53.7c-5.6,3.8-13.4,2.3-17.2-3.3l-67.6-99.7l83.9,65.2c3.6,2.8,8,4.3,12.6,4.3c6.5,0,12.4-2.9,16.3-8l39.9-51.4l14.6,21.9C239.5,177,237.9,184.7,232.3,188.6z"/><path fill="#000000" d="M59.4,72.8c3.8,3,8.3,4.5,13.1,4.5c6.7,0,12.9-3,17-8.3c3.5-4.5,5.1-10.1,4.3-15.8c-0.7-5.7-3.6-10.8-8.1-14.3c-9.1-7.1-23.1-5.3-30.1,3.8c-3.5,4.5-5.1,10.1-4.3,15.8C51.9,64.2,54.8,69.3,59.4,72.8z M62.1,47.7c2.5-3.3,6.3-5.1,10.4-5.1c3,0,5.7,1,8.1,2.8c2.8,2.2,4.6,5.3,5,8.8c0.4,3.5-0.5,7-2.7,9.7c-4.3,5.5-12.9,6.7-18.5,2.3c-2.8-2.2-4.6-5.3-5-8.8C59,54,59.9,50.5,62.1,47.7z"/></g></g>
</svg>