<?xml version="1.0" encoding="utf-8" standalone="yes"?>
<!DOCTYPE svg PUBLIC "-//W3C//DTD SVG 1.1//EN" "http://www.w3.org/Graphics/SVG/1.1/DTD/svg11.dtd">
<!-- Svg Vector Icons : http://www.onlinewebfonts.com/icon --><svg xmlns="http://www.w3.org/2000/svg" xmlns:xlink="http://www.w3.org/1999/xlink" version="1.1" x="0px" y="0px" viewBox="0 0 256 256" enable-background="new 0 0 256 256" xml:space="preserve" style="zoom: 1;"><metadata> Svg Vector Icons : http://www.onlinewebfonts.com/icon </metadata><g><g><g><path fill="#444444" d="M71.4,51.4 c-9.5,0.8 -20.9,3.9 -29.7,8.2 c-5.3,2.6 -12,6.9 -14.9,9.6 c-1.8,1.7 -2,2 -2,4.2 v2.4 l-3.6,0.1 c-4.6,0.2 -7.4,1.8 -9.6,5.2 l-1.4,2.3 l-0.1,56.2 L10,195.8 l1,2.3 c1.2,2.9 4,5.3 7.1,6.2 c3.5,1.1 216.7,1.1 220.2,0 c2.8,-0.8 5.4,-3 6.8,-5.4 l1,-1.9 v-56.8 V83.3 l-1.4,-2.3 c-2.1,-3.4 -5,-5 -9.6,-5.2 l-3.6,-0.1 v-2.4 c0,-2.1 -0.1,-2.4 -1.9,-4.2 c-1.1,-1 -3.8,-3 -6.1,-4.6 c-14.5,-9.6 -34.5,-14.8 -51.5,-13.3 C157,52.6 144,57 132.4,64.6 l-4.3,2.8 l-4.2,-2.8 c-10.8,-7.2 -24.7,-12 -38.7,-13.3 C79.4,50.8 77.9,50.8 71.4,51.4 M84.2,58.7 c13,1.2 25.4,5.4 35.7,12.3 l4.5,3 v55 c0,52.1 0,54.9 -0.8,54.6 c-12.9,-5.2 -24.5,-7.8 -38.6,-9 c-18.2,-1.4 -37.1,0.8 -49.6,6 l-3.3,1.4 v-53.9 V74 l4.2,-2.8 c9.1,-6.1 20.8,-10.5 31.5,-11.9 C75.3,58.2 77.7,58.1 84.2,58.7 M188.8,59.2 c10.9,1.6 22.8,6.3 32,12.5 l3.3,2.3 v53.9 v53.9 l-3.3,-1.4 c-11.9,-4.9 -31.6,-7.3 -48.7,-6 c-14.9,1.2 -26.3,3.7 -39.4,9 c-0.8,0.3 -0.8,-2.5 -0.8,-54.6 V74 l4.2,-2.8 c10.8,-7.2 22.3,-11.2 37,-12.6 C175.8,58.2 185,58.6 188.8,59.2 M24.8,136.4 v53.2 l1.4,1.2 c1.2,1 1.8,1.2 3.4,0.9 c1,-0.1 5.5,-0.6 10,-0.9 c31.3,-2.6 57.4,-2 77.9,1.7 c8.4,1.5 11.7,1.6 19.9,0.2 c23.6,-4 47.2,-4.5 79.4,-1.9 c4.4,0.4 9,0.8 10.1,0.9 c1.7,0.3 2.1,0.1 3.3,-1.1 l1.4,-1.3 v-53.1 V83.1 h2.7 c2.4,0 2.9,0.1 3.7,1.2 c1,1.2 1,1.3 1,55.9 v54.7 l-1.3,1.3 l-1.3,1.3 H128.1 H20.1 l-1.3,-1.3 l-1.3,-1.3 v-54.7 c0,-54.6 0,-54.6 1,-55.9 c0.8,-1.1 1.3,-1.2 3.7,-1.2 h2.7 L24.8,136.4 L24.8,136.4 "></path></g></g></g></svg>