<?xml version="1.0" encoding="utf-8"?>
<!-- Svg Vector Icons : http://www.onlinewebfonts.com/icon -->
<!DOCTYPE svg PUBLIC "-//W3C//DTD SVG 1.1//EN" "http://www.w3.org/Graphics/SVG/1.1/DTD/svg11.dtd">
<svg version="1.1" xmlns="http://www.w3.org/2000/svg" xmlns:xlink="http://www.w3.org/1999/xlink" x="0px" y="0px" viewBox="0 0 256 256" enable-background="new 0 0 256 256" xml:space="preserve">
<metadata> Svg Vector Icons : http://www.onlinewebfonts.com/icon </metadata>
<g><g><path fill="#000000" d="M156.8,227.3H26.6c-9.1,0-16.6-7.4-16.6-16.5V80.5C10,71.4,17.4,64,26.6,64h14.1v8.8H26.6c-4.3,0-7.8,3.5-7.8,7.8v130.2c0,4.3,3.5,7.7,7.8,7.7h130.2c4.3,0,7.8-3.5,7.8-7.7v-14.1h8.8v14.1C173.3,219.9,165.9,227.3,156.8,227.3z"/><path fill="#000000" d="M168.6,59.3"/><path fill="#000000" d="M194.8,192H64.6c-9.1,0-16.6-7.4-16.6-16.6V45.3c0-9.2,7.4-16.6,16.6-16.6h130.2c9.1,0,16.6,7.4,16.6,16.6v12.2h-8.8V45.3c0-4.3-3.5-7.8-7.8-7.8H64.6c-4.3,0-7.8,3.5-7.8,7.8v130.2c0,4.3,3.5,7.8,7.8,7.8h130.2c4.3,0,7.8-3.5,7.8-7.8V87.6h8.8v87.9C211.4,184.6,204,192,194.8,192z"/><path fill="#000000" d="M150.4,137.3l-43.8-42.4l6.1-6.3l37.5,36.3L239.7,33l6.3,6.2L150.4,137.3z"/></g></g>
</svg>