<?xml version="1.0" encoding="utf-8"?>
<!-- Svg Vector Icons : http://www.onlinewebfonts.com/icon -->
<!DOCTYPE svg PUBLIC "-//W3C//DTD SVG 1.1//EN" "http://www.w3.org/Graphics/SVG/1.1/DTD/svg11.dtd">
<svg version="1.1" xmlns="http://www.w3.org/2000/svg" xmlns:xlink="http://www.w3.org/1999/xlink" x="0px" y="0px" viewBox="0 0 256 256" enable-background="new 0 0 256 256" xml:space="preserve">
<metadata> Svg Vector Icons : http://www.onlinewebfonts.com/icon </metadata>
<g><g><path fill="#000000" d="M152.5,10H59.7c-14.8,0-26.8,12.1-26.8,26.9l-0.1,182.1c0,14.9,12,26.9,26.8,26.9h136.7c14.9,0,26.9-12.1,26.9-26.9V80.7L152.5,10z M214.9,219c0,10.3-8.3,18.6-18.6,18.6H59.6c-10.2,0-18.5-8.3-18.5-18.6l0.1-182.1c0-10.3,8.3-18.6,18.5-18.6H149l65.9,65.9L214.9,219L214.9,219z"/><path fill="#000000" d="M78.3,200.4h99.4v-31.1H78.3V200.4z M86.7,177.7h82.7v14.4H86.7V177.7z"/><path fill="#000000" d="M135.2,98H212l-76.8-76.8V98z M143.6,41.3l48.4,48.4h-48.4V41.3z"/><path fill="#000000" d="M78.3,154.9h99.4v-31.1H78.3V154.9z M86.7,132.2h82.7v14.4H86.7V132.2z"/></g></g>
</svg>