<?xml version="1.0" encoding="utf-8"?>
<!-- Svg Vector Icons : http://www.onlinewebfonts.com/icon -->
<!DOCTYPE svg PUBLIC "-//W3C//DTD SVG 1.1//EN" "http://www.w3.org/Graphics/SVG/1.1/DTD/svg11.dtd">
<svg version="1.1" xmlns="http://www.w3.org/2000/svg" xmlns:xlink="http://www.w3.org/1999/xlink" x="0px" y="0px" viewBox="0 0 256 256" enable-background="new 0 0 256 256" xml:space="preserve">
<metadata> Svg Vector Icons : http://www.onlinewebfonts.com/icon </metadata>
<g><g><g><path fill="#000000" d="M123.5,10.1c-0.2,0.2-0.4,7.1-0.4,15.2v14.8l-2.8,0.4c-20,2.5-35.5,9.3-49.8,21.5c-16.9,14.6-27.1,34.3-30.1,58.3l-0.4,2.9l-15,0.1l-15,0.2v4.6v4.6l15,0.2l15,0.1l0.4,2.9c2.9,23.7,13,43.3,29.7,57.9c14.4,12.6,30.2,19.4,50.4,21.9l2.6,0.3l0.1,15l0.2,15h4.6h4.6l0.2-15l0.1-15l2.6-0.3c7-0.9,15.2-2.7,20.3-4.4c26.2-9.1,46.4-29.3,55.4-55.4c1.7-5,3.5-13.3,4.4-20.3l0.3-2.6l15-0.1l15-0.2v-4.6v-4.6l-15-0.2l-15-0.1l-0.3-2.6c-2.5-20.2-9.3-36-21.9-50.4c-14.6-16.7-34.2-26.8-57.9-29.7l-2.9-0.4l-0.1-15l-0.2-15l-4.3-0.2C125.8,9.9,123.7,9.9,123.5,10.1z M144.4,51.1c30.9,6.5,54.1,29.8,60.8,61.1c1.6,7.8,1.8,23.2,0.3,30.8c-3.2,15.9-10.5,29.8-21.5,40.9c-11,11.1-25.1,18.6-41.1,21.8c-7.5,1.5-23,1.4-30.8-0.3c-31.4-6.7-54.4-29.7-61.2-61c-1.7-8-1.7-24.2,0-32.2c7.2-33.4,33-57.3,66.8-62C123.5,49.2,138.4,49.7,144.4,51.1z"/><path fill="#000000" d="M123.3,117.8c-8.3,4.2-8.9,14.8-1.1,19.9c1.9,1.3,2.8,1.5,5.9,1.5s4-0.2,5.9-1.5c1.2-0.8,2.9-2.5,3.7-3.7c1.3-1.9,1.5-2.8,1.5-5.9s-0.2-4-1.5-5.9C134.3,117.2,128.1,115.3,123.3,117.8z M129.9,128.1c0,1.8-0.1,1.9-1.9,1.9c-1.6,0-2-0.2-2.1-1.2c-0.3-2.2,0.3-2.9,2.2-2.7C129.7,126.2,129.9,126.4,129.9,128.1z"/></g></g></g>
</svg>