<?xml version="1.0" encoding="utf-8" standalone="yes"?>
<!DOCTYPE svg PUBLIC "-//W3C//DTD SVG 1.1//EN" "http://www.w3.org/Graphics/SVG/1.1/DTD/svg11.dtd">
<!-- Svg Vector Icons : http://www.onlinewebfonts.com/icon --><svg xmlns="http://www.w3.org/2000/svg" xmlns:xlink="http://www.w3.org/1999/xlink" version="1.1" x="0px" y="0px" viewBox="0 0 256 256" enable-background="new 0 0 256 256" xml:space="preserve" style="zoom: 1;"><metadata> Svg Vector Icons : http://www.onlinewebfonts.com/icon </metadata><g><g><g><path fill="#444444" d="M68.2,20.3 c-28.3,3.3 -50.8,23.6 -57,51.3 c-1.3,6 -1.6,19 -0.6,26.1 c3.2,21.7 15,43.8 35.1,66.2 c10.3,11.4 27.4,27.6 44.1,41.7 c15.3,13 37.1,30.2 38.2,30.2 c1.1,0 23.1,-17.4 38.2,-30.2 c16.6,-14.1 33.7,-30.3 44.1,-41.9 c20.1,-22.2 31.6,-43.8 35,-65.8 c1.1,-6.7 0.8,-20.4 -0.5,-26.1 C239,45.6 219.9,27 193,21 c-5.6,-1.2 -18.4,-1.2 -24.1,0 c-14.2,3.1 -26.4,9.9 -36.6,20.5 L128,46 l-4,-4.2 c-7.9,-8.3 -17.3,-14.5 -27.2,-18.1 C88.6,20.8 76.5,19.4 68.2,20.3 M84.1,33.9 c9.1,1.6 18,6 25.9,12.7 c2.3,2 7.2,7.2 10.8,11.6 c3.7,4.4 6.9,8.1 7.1,8.1 s3.4,-3.6 7,-8 c7.5,-9 10.8,-12.2 17.3,-16.4 c8.3,-5.5 16.3,-8.1 26.3,-8.6 c20.9,-0.9 40.3,10.6 49.2,29.3 c11,22.8 4.9,51.3 -17.4,80.7 c-9.8,12.9 -30.4,33.4 -52.4,52.2 c-10.8,9.2 -29.4,24.1 -30,24.1 c-0.6,0 -18.3,-14.2 -28.2,-22.5 c-23,-19.4 -44.1,-40.4 -54.3,-53.8 c-25.6,-33.7 -29.7,-67.3 -11,-90.6 C46.2,38 65.6,30.7 84.1,33.9 "></path></g></g></g></svg>