<?xml version="1.0" encoding="utf-8" standalone="yes"?>
<!DOCTYPE svg PUBLIC "-//W3C//DTD SVG 1.1//EN" "http://www.w3.org/Graphics/SVG/1.1/DTD/svg11.dtd">
<!-- Svg Vector Icons : http://www.onlinewebfonts.com/icon --><svg xmlns="http://www.w3.org/2000/svg" xmlns:xlink="http://www.w3.org/1999/xlink" version="1.1" x="0px" y="0px" viewBox="0 0 256 256" enable-background="new 0 0 256 256" xml:space="preserve" style="zoom: 1;"><metadata> Svg Vector Icons : http://www.onlinewebfonts.com/icon </metadata><g><g><g><path fill="#444444" d="M62.4,15.9 c-21.5,2.4 -40.6,20 -48.6,44.7 C10.6,70.5 10,74.3 10,87 c0,12.2 0.5,15.1 3.7,25.8 c9.9,33 37.2,67.5 81.7,103.4 c8,6.5 21.3,16.5 28.5,21.6 l4.1,2.9 l4.9,-3.6 c14.2,-10.1 31.8,-23.9 44.2,-34.8 c8.5,-7.4 26.4,-25.4 32.4,-32.6 c18.7,-22.3 29.3,-41.3 34.2,-61.6 c2,-8.3 2.4,-13 2.2,-24 c-0.2,-11.1 -1.2,-17 -4.3,-25.8 c-8.1,-23.4 -27.1,-40 -48.8,-42.4 c-13.8,-1.6 -27.2,0.1 -37.2,4.6 c-7.4,3.3 -17.3,11.5 -25.4,21 l-2.4,2.8 l-2.4,-2.8 c-4.4,-5.1 -12.6,-12.9 -16.5,-15.6 c-7.6,-5.4 -15.4,-8.4 -24.8,-9.7 C79.3,15.4 68,15.3 62.4,15.9 "></path></g></g></g></svg>