<?xml version="1.0" encoding="utf-8"?>
<!-- Svg Vector Icons : http://www.onlinewebfonts.com/icon -->
<!DOCTYPE svg PUBLIC "-//W3C//DTD SVG 1.1//EN" "http://www.w3.org/Graphics/SVG/1.1/DTD/svg11.dtd">
<svg version="1.1" xmlns="http://www.w3.org/2000/svg" xmlns:xlink="http://www.w3.org/1999/xlink" x="0px" y="0px" viewBox="0 0 256 256" enable-background="new 0 0 256 256" xml:space="preserve">
<metadata> Svg Vector Icons : http://www.onlinewebfonts.com/icon </metadata>
<g><g><g><path fill="#000000" d="M111.1,22.5v15.8H72.4c-41.1,0-42.4,0.1-48.3,3.1c-4.5,2.3-8.8,6.8-11.3,11.8C5.3,68.4,13.5,86.1,30,90.5c2.5,0.7,11.6,0.9,42.2,0.9h39v6.9v6.9H72.4c-41.1,0-42.4,0.1-48.3,3.1c-4.5,2.3-8.8,6.8-11.3,11.9c-5.3,10.7-2.8,23.2,6.1,31.3c3.2,2.9,7.6,5.1,11.9,6.1c2.3,0.4,15.7,0.7,41.8,0.7h38.5v45.5v45.5h17.7h17.7v-63.2v-63.2h38.4c40.8,0,41.4-0.1,47.4-3.2c4.4-2.2,9.3-7.3,11.6-11.9c1.9-4,2-4.5,2-11.4c0-7-0.1-7.5-2.1-11.5c-2.3-4.7-7.1-9.7-11.3-11.8c-6.2-3.2-7.2-3.2-47.9-3.2h-38.1V38.3V6.7h-17.7h-17.7L111.1,22.5L111.1,22.5z M136.4,128v111.2h-7.6h-7.6V128V16.8h7.6h7.6V128z M109.9,64.8v16.4H71.7c-32.2,0-38.5-0.1-40.8-0.9C24.3,78,20.2,72,20.2,65.1c0-7.8,3.8-13.1,11.3-15.8c1.8-0.6,10.9-0.8,40.4-0.9h38L109.9,64.8L109.9,64.8z M225.5,80.9c6.5,2.3,10.9,8.6,10.9,15.5c0,4.5-2.4,9.9-5.7,12.6c-4.7,3.9-4.2,3.8-46.1,3.8h-38.1V96.4V80h38.2C216.8,80,223.2,80.1,225.5,80.9z M109.9,131.8v16.4l-38.3-0.1c-27.7,0-39-0.3-40.4-0.8c-6.8-2.5-10.9-8.4-10.9-15.4c0-7.8,3.8-13.1,11.3-15.8c1.8-0.6,10.9-0.8,40.4-0.9h38L109.9,131.8L109.9,131.8z"/></g></g></g>
</svg>