<?xml version="1.0" encoding="UTF-8" standalone="no"?>
<!-- Svg Vector Icons : http://www.onlinewebfonts.com/icon -->

<svg
   version="1.1"
   x="0px"
   y="0px"
   viewBox="0 0 256 256"
   enable-background="new 0 0 256 256"
   xml:space="preserve"
   id="svg10"
   sodipodi:docname="last.svg"
   inkscape:version="1.2.2 (b0a8486541, 2022-12-01)"
   xmlns:inkscape="http://www.inkscape.org/namespaces/inkscape"
   xmlns:sodipodi="http://sodipodi.sourceforge.net/DTD/sodipodi-0.dtd"
   xmlns="http://www.w3.org/2000/svg"
   xmlns:svg="http://www.w3.org/2000/svg"><defs
   id="defs14" /><sodipodi:namedview
   id="namedview12"
   pagecolor="#ffffff"
   bordercolor="#000000"
   borderopacity="0.25"
   inkscape:showpageshadow="2"
   inkscape:pageopacity="0.0"
   inkscape:pagecheckerboard="0"
   inkscape:deskcolor="#d1d1d1"
   showgrid="false"
   inkscape:zoom="0.921875"
   inkscape:cx="98.711864"
   inkscape:cy="195.25424"
   inkscape:window-width="1440"
   inkscape:window-height="831"
   inkscape:window-x="0"
   inkscape:window-y="32"
   inkscape:window-maximized="1"
   inkscape:current-layer="svg10" />
<metadata
   id="metadata2"> Svg Vector Icons : http://www.onlinewebfonts.com/icon </metadata>
<g
   id="g8"
   transform="matrix(0.6991482,0,0,0.8068797,34.586147,26.750732)"><g
     id="g6"><path
       fill="#000000"
       d="m 41.8,247.5 v 0 c -11.3,0 -21.8,-6.2 -27.4,-16.2 -0.7,-1.3 -1.9,-3.4 -3,-35 -0.6,-18 -1.1,-41.8 -1.3,-66.9 C 9.9,104.2 10,80.5 10.4,62.6 11,33.2 12.1,29.3 12.8,27.8 16,19 23.9,8.5 43.1,8.5 h 0.3 c 2,0 6.2,0 97.4,46.3 44.7,22.7 89,45.7 89.4,45.9 l 0.2,0.1 c 8.5,5 14.1,13.7 15.4,23.8 v 0.2 c 0,0.2 0.1,0.5 0.1,0.7 0.1,1.2 0.1,2.2 0.1,3.2 v 0.3 0.3 c 0,1 0,2 -0.1,3.2 0,0.3 -0.1,0.5 -0.1,0.7 v 0.2 c -1.3,10.1 -6.9,18.8 -15.4,23.8 l -0.2,0.1 -172.7,85.9 c -4.8,2.8 -10.2,4.3 -15.7,4.3 z m -21,-19.7 c 4.4,7.6 12.4,12.3 21,12.3 4.2,0 8.4,-1.2 12.1,-3.3 l 0.2,-0.1 172.7,-85.9 c 6.5,-3.9 10.8,-10.6 11.8,-18.4 v -0.1 c 0,-0.1 0,-0.3 0.1,-0.5 0,-0.1 0,-0.1 0,-0.2 0.1,-0.7 0.1,-1.4 0,-2.3 v -0.3 -0.4 c 0,-0.8 0,-1.6 -0.1,-2.3 0,0 0,-0.1 0,-0.1 0,-0.1 0,-0.3 -0.1,-0.5 v -0.1 c -1,-7.9 -5.3,-14.6 -11.8,-18.4 C 157.7,71.4 52.1,17.6 43.2,15.9 h -0.1 c -12.3,0 -20,4.8 -23.5,14.6 l -0.2,0.4 c -1.3,4.3 -2.5,40 -2,98.5 0.4,58.4 2.1,94.2 3.4,98.4 z"
       id="path4" /></g></g>
<rect
   style="fill:#000000;stroke:#444444;stroke-width:1.5"
   id="rect774"
   width="3.710474"
   height="189.26271"
   x="-212.18571"
   y="35.337761"
   transform="scale(-1,1)" /></svg>
