<?xml version="1.0" encoding="utf-8" standalone="yes"?>
<!DOCTYPE svg PUBLIC "-//W3C//DTD SVG 1.1//EN" "http://www.w3.org/Graphics/SVG/1.1/DTD/svg11.dtd">
<!-- Svg Vector Icons : http://www.onlinewebfonts.com/icon --><svg xmlns="http://www.w3.org/2000/svg" xmlns:xlink="http://www.w3.org/1999/xlink" version="1.1" x="0px" y="0px" viewBox="0 0 256 256" enable-background="new 0 0 256 256" xml:space="preserve" style="zoom: 1;"><metadata> Svg Vector Icons : http://www.onlinewebfonts.com/icon </metadata><g><g><g><path fill="#444444" d="M117.2,10.4 C87.5,13 59.8,25.8 40,46.2 c-26.2,27 -35.1,63.3 -23.8,97.4 c4.8,14.6 12.5,27.3 23.7,38.7 l5.3,5.5 l-0.3,3.2 c-0.2,1.7 -0.8,5 -1.5,7.3 C39.8,211 32.2,220.5 15.5,233 c-4.9,3.7 -5.5,4.4 -5.5,6.6 c0,3.4 1.2,4.3 7.4,5.7 c4.8,1 18.6,1.2 24,0.2 c22.1,-3.7 45.3,-13.6 62.5,-26.7 c2.5,-1.9 2.6,-2 4.8,-1.6 c9.5,1.8 28.6,1.8 39.6,0.1 c21.7,-3.3 41.7,-11.9 58.5,-25 c5.3,-4.1 14.7,-13.7 18.7,-18.9 c14.4,-19.1 21.2,-39.8 20.3,-62.6 c-0.5,-14.1 -3.6,-26.4 -10.2,-39.3 C215.3,30.7 167.3,6 117.2,10.4 M141.4,20.1 c25.5,2.4 50.6,13.9 68.1,31.4 c31.2,31 35.9,76.5 11.7,111.8 c-18.4,26.8 -49.1,43.4 -85,45.8 c-8.6,0.6 -18.5,0.1 -26.7,-1.3 c-2.4,-0.4 -4.9,-0.6 -5.5,-0.5 c-0.6,0.1 -2.5,1.4 -4.3,2.7 c-11,8.6 -25.9,16.4 -40.6,21.3 c-10.4,3.5 -17.3,4.8 -25.9,5.1 l-6.9,0.2 l2.1,-1.7 c4.2,-3.5 12.8,-12.5 15.2,-15.9 c7,-10 10.7,-20.7 10.9,-31.5 l0,-4 l-5.3,-5.2 c-2.9,-2.9 -6.7,-6.9 -8.3,-8.9 c-10.8,-13.4 -17.5,-29 -19.5,-45.2 c-0.8,-7.1 -0.3,-20 1.2,-26.9 c7.5,-35.4 36.8,-64.2 75.8,-74.1 C112.7,19.6 126,18.6 141.4,20.1 "></path><path fill="#444444" d="M93.6,100.6 v17.3 l6.8,0.1 l6.8,0.1 l-0.1,4.2 c-0.1,5 -1.7,10.9 -4.2,15.9 c-2.1,4.2 -6.8,9.3 -9.4,10.1 l-1.8,0.6 v7.1 v7.1 l2,-0.6 c7.7,-2.4 14.3,-7.6 19.2,-15.2 c3.5,-5.5 5.6,-10.6 7.1,-17.9 c0.8,-3.9 0.9,-6.7 1.2,-25.3 l0.2,-20.9 h-13.9 H93.6 V100.6 L93.6,100.6 "></path><path fill="#444444" d="M144,100.6 V118 h6.9 h6.9 v3.7 c0,10.7 -5.7,22.5 -12.7,26.1 l-2.5,1.3 v7 v7 l2.1,-0.6 c8.3,-2.5 16.4,-9.7 21.2,-19.1 c2.6,-5.1 3.9,-8.8 4.9,-15 c0.8,-4.4 0.9,-7.4 0.9,-25 V83.3 h-13.9 H144 V100.6 L144,100.6 "></path></g></g></g></svg>