<?xml version="1.0" encoding="utf-8"?>
<!-- Svg Vector Icons : http://www.onlinewebfonts.com/icon -->
<!DOCTYPE svg PUBLIC "-//W3C//DTD SVG 1.1//EN" "http://www.w3.org/Graphics/SVG/1.1/DTD/svg11.dtd">
<svg version="1.1" xmlns="http://www.w3.org/2000/svg" xmlns:xlink="http://www.w3.org/1999/xlink" x="0px" y="0px" viewBox="0 0 256 256" enable-background="new 0 0 256 256" xml:space="preserve">
<metadata> Svg Vector Icons : http://www.onlinewebfonts.com/icon </metadata>
<g><g><g><path fill="#000000" d="M33,10.7c-8.2,1.8-16,7.9-19.8,15.4C9.8,33.2,10,26,10,128s-0.2,94.7,3.3,101.9c3.7,7.6,11.8,13.7,20,15.4c4.8,1,184.6,1,189.4,0c8.2-1.7,16.1-7.8,20-15.4c3.5-7,3.3-1.2,3.3-89V62.3l-26.1-26.1L193.7,10l-78.8,0C49.3,10,35.5,10.2,33,10.7z M47,59.2c0.1,34.1,0.1,34.6,1.1,35.8c0.5,0.7,1.5,1.7,2.2,2.2c1.2,1,1.4,1,63,1c61.6,0,61.7,0,63-1c0.7-0.5,1.7-1.5,2.2-2.2c1-1.2,1-1.8,1.1-35.8l0.1-34.5h4.1h4l21.8,21.8l21.8,21.8l-0.1,76.1l-0.1,76.1l-1.2,2.3c-1.8,3.5-3.2,4.9-6.5,6.7c-2.8,1.5-3.2,1.6-8.5,1.7l-5.7,0.2l-0.1-53c-0.1-52.7-0.1-53.1-1.1-54.3c-0.5-0.7-1.5-1.7-2.2-2.2l-1.2-1H128H51.5l-1.2,1c-0.7,0.5-1.7,1.5-2.2,2.2c-1,1.2-1,1.6-1.1,54.3l-0.1,53l-5.7-0.2c-4.7-0.2-6-0.4-7.9-1.3c-2.9-1.4-5.7-4.1-7.1-7.1l-1.2-2.3V128V35.5l1.2-2.3c2-4,5.8-7.1,9.9-8.1c0.8-0.2,3.5-0.3,6.1-0.4l4.7,0L47,59.2z M164.9,54.2v29.5h-51.6H61.6V54.2V24.7h51.6h51.6V54.2z M194.4,183.3v47.9H128H61.6v-47.9v-47.9H128h66.4V183.3z"/><path fill="#000000" d="M136.5,40.6l-1.2,1.1v12.5v12.5l1.2,1.1c1.1,1.1,1.4,1.2,6.2,1.2c4.8,0,5.2,0,6.2-1.2l1.2-1.1V54.2V41.7l-1.2-1.1c-1.1-1.1-1.4-1.2-6.2-1.2C138,39.5,137.6,39.5,136.5,40.6z"/><path fill="#000000" d="M88.1,158.1c-3.1,1.3-4.8,4.9-4.2,8.3c0.4,2.2,2.7,4.7,4.8,5.3c1.2,0.4,14.1,0.5,40.3,0.4c38.1-0.1,38.6-0.1,39.8-1.1c2.4-1.8,3.2-3.3,3.2-6.2s-0.7-4.4-3.2-6.2c-1.2-1-1.7-1-40.3-1.1C96.8,157.5,89.2,157.6,88.1,158.1z"/><path fill="#000000" d="M88.1,195c-3.1,1.3-4.8,4.9-4.2,8.3c0.4,2.2,2.7,4.7,4.8,5.3c1.2,0.4,14.1,0.5,40.3,0.4c38.1-0.1,38.6-0.1,39.8-1.1c2.4-1.8,3.2-3.3,3.2-6.2s-0.7-4.4-3.2-6.2c-1.2-1-1.7-1-40.3-1.1C96.8,194.4,89.2,194.5,88.1,195z"/></g></g></g>
</svg>