<?xml version="1.0" encoding="UTF-8" standalone="no"?>
<!-- Svg Vector Icons : http://www.onlinewebfonts.com/icon -->

<svg
   version="1.1"
   x="0px"
   y="0px"
   viewBox="0 0 256 256"
   enable-background="new 0 0 256 256"
   xml:space="preserve"
   id="svg2771"
   sodipodi:docname="tags.svg"
   inkscape:version="1.2.2 (b0a8486541, 2022-12-01)"
   xmlns:inkscape="http://www.inkscape.org/namespaces/inkscape"
   xmlns:sodipodi="http://sodipodi.sourceforge.net/DTD/sodipodi-0.dtd"
   xmlns="http://www.w3.org/2000/svg"
   xmlns:svg="http://www.w3.org/2000/svg"><defs
   id="defs2775" /><sodipodi:namedview
   id="namedview2773"
   pagecolor="#ffffff"
   bordercolor="#000000"
   borderopacity="0.25"
   inkscape:showpageshadow="2"
   inkscape:pageopacity="0.0"
   inkscape:pagecheckerboard="0"
   inkscape:deskcolor="#d1d1d1"
   showgrid="false"
   inkscape:zoom="0.921875"
   inkscape:cx="-49.898305"
   inkscape:cy="128"
   inkscape:window-width="1440"
   inkscape:window-height="831"
   inkscape:window-x="0"
   inkscape:window-y="32"
   inkscape:window-maximized="1"
   inkscape:current-layer="svg2771" />
<metadata
   id="metadata2761"> Svg Vector Icons : http://www.onlinewebfonts.com/icon </metadata>
<g
   id="g2769"
   transform="matrix(0.93489816,0,0,0.90087108,9.3739515,14.095561)"><g
     id="g2767"><path
       fill="#000000"
       d="m 242.5,166.7 -16.1,-24.2 13.4,-17.2 c 3.4,-4.3 4.9,-9.7 4.2,-15.2 -0.7,-5.5 -3.5,-10.4 -7.8,-13.7 L 130.6,14.4 C 122.7,8.3 108.7,3.5 98.5,3.5 L 27,3.6 c -5.6,0 -10.6,2.3 -13.7,6.3 -3.1,4 -4.1,9.4 -2.7,14.9 L 28.1,94 c 2.5,9.7 10.6,22.2 18.6,28.4 l 0.6,0.5 81.9,120.7 c 3.1,4.6 7.8,7.6 13.2,8.7 1.3,0.3 2.6,0.4 4,0.4 4.1,0 8.1,-1.2 11.5,-3.6 L 237,195.4 c 9.3,-6.4 11.8,-19.3 5.5,-28.7 z M 36.1,92 18.6,22.7 c -0.8,-3 -0.3,-5.7 1.2,-7.8 1.6,-2 4.1,-3.1 7.2,-3.1 l 71.5,-0.2 c 8.2,0 20.5,4.2 27,9.2 l 105.5,82 c 2.6,2 4.3,4.9 4.7,8.2 0.4,3.3 -0.5,6.5 -2.5,9.1 l -58.6,75.5 c -4,5.2 -12.2,6.3 -17.4,2.2 L 53.4,117.1 51,115.2 C 44.7,109.9 38,99.6 36.1,92 Z m 196.2,96.6 -79.1,53.7 c -5.6,3.8 -13.4,2.3 -17.2,-3.3 l -67.6,-99.7 83.9,65.2 c 3.6,2.8 8,4.3 12.6,4.3 6.5,0 12.4,-2.9 16.3,-8 l 39.9,-51.4 14.6,21.9 c 3.8,5.7 2.2,13.4 -3.4,17.3 z"
       id="path2763" /><path
       fill="#000000"
       d="m 59.4,72.8 c 3.8,3 8.3,4.5 13.1,4.5 6.7,0 12.9,-3 17,-8.3 3.5,-4.5 5.1,-10.1 4.3,-15.8 -0.7,-5.7 -3.6,-10.8 -8.1,-14.3 -9.1,-7.1 -23.1,-5.3 -30.1,3.8 -3.5,4.5 -5.1,10.1 -4.3,15.8 0.6,5.7 3.5,10.8 8.1,14.3 z m 2.7,-25.1 c 2.5,-3.3 6.3,-5.1 10.4,-5.1 3,0 5.7,1 8.1,2.8 2.8,2.2 4.6,5.3 5,8.8 0.4,3.5 -0.5,7 -2.7,9.7 C 78.6,69.4 70,70.6 64.4,66.2 61.6,64 59.8,60.9 59.4,57.4 59,54 59.9,50.5 62.1,47.7 Z"
       id="path2765" /></g></g>
</svg>
